<svg width="16" height="16" viewBox="0 0 16 16" fill="black" xmlns="http://www.w3.org/2000/svg">
<path d="M3.1705 0.316623L15.5944 7.40897C15.7419 7.4934 15.8466 7.58487 15.9085 7.68338C15.9705 7.78188 16.001 7.88742 16 8C16 8.11258 15.9695 8.21812 15.9085 8.31662C15.8476 8.41513 15.7429 8.5066 15.5944 8.59103L3.1705 15.7045C2.82642 15.9015 2.39631 16 1.88018 16C1.36405 16 0.921659 15.8945 0.552995 15.6834C0.184332 15.4723 -2.98023e-07 15.226 -2.98023e-07 14.9446C-2.98023e-07 14.6631 0.184332 14.4169 0.552995 14.2058L11.3917 8L0.552995 1.7942C0.20891 1.59719 0.0368663 1.3543 0.0368663 1.06554C0.0368663 0.776781 0.221198 0.527142 0.589861 0.316623C0.958524 0.105541 1.38863 0 1.88018 0C2.37173 0 2.80184 0.105541 3.1705 0.316623Z"/>
</svg>
