<svg width="16" height="16" viewBox="0 0 16 16" fill="black" xmlns="http://www.w3.org/2000/svg">
<path d="M12.8295 15.6834L0.405552 8.59103C0.258087 8.5066 0.153387 8.41513 0.0914512 8.31662C0.0295158 8.21812 -0.00096006 8.11258 2.30417e-05 8C2.30417e-05 7.88742 0.0304989 7.78188 0.0914512 7.68338C0.152403 7.58487 0.257104 7.4934 0.405552 7.40897L12.8295 0.295514C13.1736 0.0985048 13.6037 0 14.1198 0C14.6359 0 15.0783 0.105541 15.447 0.316623C15.8157 0.527704 16 0.773967 16 1.05541C16 1.33685 15.8157 1.58311 15.447 1.7942L4.60831 8L15.447 14.2058C15.7911 14.4028 15.9631 14.6457 15.9631 14.9345C15.9631 15.2232 15.7788 15.4729 15.4101 15.6834C15.0415 15.8945 14.6114 16 14.1198 16C13.6283 16 13.1982 15.8945 12.8295 15.6834Z"/>
</svg>
