<svg width="8" height="17" viewBox="0 0 8 17" fill="black" xmlns="http://www.w3.org/2000/svg">
<path d="M6.41475 16.1834L0.202776 9.09103C0.129043 9.0066 0.0766933 8.91513 0.0457256 8.81662C0.0147579 8.71812 -0.00048003 8.61258 1.15208e-05 8.5C1.15208e-05 8.38742 0.0152494 8.28188 0.0457256 8.18338C0.0762017 8.08487 0.128552 7.9934 0.202776 7.90897L6.41475 0.795514C6.58679 0.598505 6.80185 0.5 7.05991 0.5C7.31797 0.5 7.53917 0.605541 7.7235 0.816623C7.90783 1.0277 8 1.27397 8 1.55541C8 1.83685 7.90783 2.08311 7.7235 2.2942L2.30416 8.5L7.7235 14.7058C7.89555 14.9028 7.98157 15.1457 7.98157 15.4345C7.98157 15.7232 7.8894 15.9729 7.70507 16.1834C7.52074 16.3945 7.30568 16.5 7.05991 16.5C6.81413 16.5 6.59908 16.3945 6.41475 16.1834Z"/>
</svg>
