<svg width="16" height="17" viewBox="0 0 16 17" fill="black" xmlns="http://www.w3.org/2000/svg">
<path d="M10.795 1.7056C10.4672 1.73572 10.1625 1.88723 9.94072 2.13039C9.71889 2.37356 9.59591 2.69084 9.5959 3.02V6.9C9.5959 7.05913 9.53269 7.21174 9.42018 7.32426C9.30767 7.43679 9.15508 7.5 8.99597 7.5C7.8417 7.5 7.0306 7.9704 6.43067 8.6904C5.81314 9.4328 5.41079 10.4552 5.15882 11.536C4.90845 12.6104 4.81726 13.6928 4.79006 14.5136C4.78097 14.7756 4.77777 15.0378 4.78046 15.3H10.3958V14.7C10.3958 14.2227 10.2063 13.765 9.86894 13.4275C9.53159 13.0899 9.07401 12.9002 8.59681 12.9H7.59693C7.43782 12.9 7.28522 12.8368 7.17272 12.7243C7.06021 12.6117 6.997 12.4591 6.997 12.3C6.997 12.1409 7.06021 11.9883 7.17272 11.8757C7.28522 11.7632 7.43782 11.7 7.59693 11.7H8.59681C8.99063 11.7001 9.38057 11.7778 9.74436 11.9286C10.1082 12.0794 10.4387 12.3004 10.7171 12.579C10.9955 12.8576 11.2163 13.1883 11.3669 13.5522C11.5175 13.9161 11.595 14.3061 11.5949 14.7V15.3H12.1948C12.3539 15.3 12.5065 15.2368 12.619 15.1243C12.7315 15.0117 12.7947 14.8591 12.7947 14.7V6.7C12.7947 6.54115 12.8577 6.38878 12.9699 6.2763C13.082 6.16382 13.2342 6.10042 13.3931 6.1H13.7978C13.976 6.09997 14.1509 6.05233 14.3045 5.96198C14.4581 5.87164 14.5848 5.74188 14.6714 5.58615C14.7581 5.43041 14.8015 5.25435 14.7973 5.07619C14.793 4.89803 14.7412 4.72424 14.6473 4.5728L14.1514 3.7728C14.0617 3.62834 13.9368 3.50911 13.7883 3.42639C13.6398 3.34366 13.4726 3.30016 13.3027 3.3H11.3941C11.235 3.3 11.0824 3.23679 10.9699 3.12426C10.8574 3.01174 10.7942 2.85913 10.7942 2.7L10.795 1.7056ZM3.5814 15.3C3.579 15.0728 3.5806 14.7928 3.591 14.4736C3.6198 13.6072 3.71658 12.44 3.99095 11.264C4.26292 10.0944 4.72287 8.8672 5.50997 7.9224C6.20749 7.0848 7.15378 6.4816 8.39764 6.3344V3.02C8.39764 2.35221 8.66266 1.71172 9.13451 1.23922C9.60635 0.766722 10.2464 0.500848 10.9141 0.5C11.5109 0.5 11.994 0.9832 11.994 1.58V2.1H13.3027C14.0626 2.1 14.7697 2.4936 15.1704 3.14L15.6664 3.94C16.5399 5.3504 15.5992 7.156 13.9922 7.292V14.7C13.9922 15.177 13.8029 15.6344 13.4659 15.9719C13.1289 16.3094 12.6717 16.4994 12.1948 16.5H3.03826C2.44617 16.5002 1.86693 16.3273 1.37179 16.0026C0.876655 15.6779 0.48721 15.2155 0.251361 14.6724C0.0155111 14.1292 -0.0564567 13.529 0.0443093 12.9454C0.145075 12.3619 0.41418 11.8206 0.818524 11.388L1.72642 10.4144C2.15874 9.95071 2.39426 9.33732 2.38337 8.70341C2.37248 8.0695 2.11603 7.46456 1.66802 7.016L0.777729 6.124C0.671758 6.01026 0.614066 5.85982 0.616808 5.70438C0.61955 5.54894 0.682513 5.40063 0.79243 5.2907C0.902348 5.18077 1.05064 5.1178 1.20606 5.11506C1.36148 5.11232 1.5119 5.17002 1.62563 5.276L2.51673 6.1672C3.18495 6.83552 3.5676 7.73723 3.58402 8.68222C3.60043 9.62722 3.24933 10.5417 2.60471 11.2328L1.69602 12.2064C1.4521 12.4685 1.28995 12.7961 1.22943 13.149C1.16892 13.5019 1.21267 13.8648 1.35532 14.1932C1.49798 14.5216 1.73334 14.8012 2.03256 14.9978C2.33178 15.1944 2.68185 15.2994 3.03986 15.3H3.5814Z"/>
</svg>
