<svg width="16" height="17" viewBox="0 0 16 17" fill="none" xmlns="http://www.w3.org/2000/svg">
<path d="M9.35482 0.894C9.79854 0.594 10.3148 0.5 10.6668 0.5H12.2092C12.6923 0.499963 13.1665 0.623012 13.5809 0.856L15.4827 1.926C15.6404 2.01487 15.771 2.14049 15.8617 2.29066C15.9523 2.44084 16 2.61045 16 2.783V4C16 4.39782 15.8314 4.77936 15.5314 5.06066C15.2313 5.34196 14.8244 5.5 14.4 5.5H13.8667V13.538C14.3158 13.603 14.7659 13.76 15.1414 14.053C15.6853 14.477 16 15.13 16 16C16 16.1326 15.9438 16.2598 15.8438 16.3536C15.7438 16.4473 15.6081 16.5 15.4667 16.5H3.20029C2.52895 16.5001 1.87459 16.3022 1.32984 15.9344C0.785078 15.5665 0.377513 15.0474 0.164829 14.4504C-0.0478555 13.8535 -0.0548858 13.2089 0.144733 12.608C0.344352 12.007 0.740509 11.4802 1.27713 11.102C1.39035 11.0254 1.53108 10.9935 1.6691 11.0131C1.80713 11.0328 1.93144 11.1023 2.01536 11.2069C2.09928 11.3115 2.13611 11.4428 2.11794 11.5726C2.09977 11.7023 2.02805 11.8203 1.91818 11.901C1.56029 12.1531 1.29605 12.5043 1.16287 12.905C1.0297 13.3057 1.03435 13.7355 1.17616 14.1336C1.31796 14.5316 1.58974 14.8778 1.95301 15.123C2.31629 15.3683 2.75264 15.5001 3.20029 15.5C3.50748 15.5 3.70161 15.43 3.82961 15.35C3.95616 15.2681 4.05735 15.1564 4.12293 15.026C4.20861 14.8617 4.25761 14.6827 4.26693 14.5V14.455L4.2712 14.345C4.30657 13.7662 4.39941 13.1917 4.54852 12.629C4.82905 11.579 5.39757 10.233 6.55595 9.146C8.52283 7.303 8.5335 4.831 8.5335 4V2.5C8.5335 1.737 8.88549 1.212 9.35482 0.894ZM9.51908 5.4C9.35375 6.656 8.84816 8.412 7.31113 9.854C6.33622 10.767 5.8381 11.921 5.58423 12.871C5.45198 13.3691 5.36914 13.8776 5.33677 14.39C5.33534 14.419 5.33427 14.448 5.33357 14.477V14.533L5.32931 14.6C5.30572 14.9137 5.21504 15.2198 5.06265 15.5H11.647C11.5404 15.18 11.3238 14.851 10.9516 14.668C10.6977 14.55 10.4167 14.4923 10.1335 14.5H9.06682C8.92538 14.5 8.78972 14.4473 8.68971 14.3536C8.58969 14.2598 8.5335 14.1326 8.5335 14C8.5335 13.8674 8.58969 13.7402 8.68971 13.6464C8.78972 13.5527 8.92538 13.5 9.06682 13.5H10.1335C10.3212 13.5 10.4983 13.514 10.6668 13.54V11C10.6668 10.8674 10.723 10.7402 10.823 10.6464C10.923 10.5527 11.0587 10.5 11.2001 10.5C11.3416 10.5 11.4772 10.5527 11.5772 10.6464C11.6772 10.7402 11.7334 10.8674 11.7334 11V13.948C12.3521 14.366 12.6369 14.988 12.7446 15.5H14.8779C14.7979 15.172 14.6379 14.961 14.4587 14.822C14.1846 14.607 13.7867 14.5 13.3334 14.5C13.1919 14.5 13.0563 14.4473 12.9563 14.3536C12.8563 14.2598 12.8001 14.1326 12.8001 14V5C12.8001 4.86739 12.8563 4.74021 12.9563 4.64645C13.0563 4.55268 13.1919 4.5 13.3334 4.5H14.4C14.5415 4.5 14.6771 4.44732 14.7772 4.35355C14.8772 4.25979 14.9334 4.13261 14.9334 4V2.783L13.0326 1.713C12.7838 1.57335 12.4992 1.49972 12.2092 1.5H10.6668C10.4855 1.5 10.2017 1.555 9.9788 1.706C9.78147 1.838 9.60014 2.063 9.60014 2.5V4C9.60014 4.087 9.63214 4.228 9.71321 4.333C9.77401 4.413 9.88067 4.5 10.1335 4.5C10.3863 4.5 10.4929 4.412 10.5537 4.333C10.6247 4.23449 10.664 4.11888 10.6668 4C10.6668 3.86739 10.723 3.74021 10.823 3.64645C10.923 3.55268 11.0587 3.5 11.2001 3.5C11.3416 3.5 11.4772 3.55268 11.5772 3.64645C11.6772 3.74021 11.7334 3.86739 11.7334 4C11.7334 4.247 11.6588 4.606 11.4198 4.917C11.1606 5.254 10.734 5.5 10.1335 5.5C9.9239 5.50187 9.71571 5.46799 9.51908 5.4Z" fill="white"/>
</svg>
