<svg width="16" height="16" viewBox="0 0 16 16" fill="black" xmlns="http://www.w3.org/2000/svg">
<path d="M15.6629 14.0465C15.8775 14.2611 15.9981 14.5521 15.9981 14.8556C15.9981 15.1591 15.8775 15.4502 15.6629 15.6648C15.4483 15.8794 15.1572 16 14.8537 16C14.5502 16 14.2591 15.8794 14.0444 15.6648L8 9.61883L1.95365 15.6629C1.73903 15.8775 1.44794 15.9981 1.14442 15.9981C0.840901 15.9981 0.549813 15.8775 0.335193 15.6629C0.120573 15.4483 3.19809e-09 15.1572 0 14.8537C-3.19809e-09 14.5502 0.120573 14.2592 0.335193 14.0446L6.38155 8.00048L0.337097 1.95448C0.122476 1.73987 0.0019041 1.4488 0.00190411 1.1453C0.00190411 0.841803 0.122476 0.550732 0.337097 0.336125C0.551717 0.121517 0.842805 0.000951818 1.14632 0.000951815C1.44984 0.000951812 1.74093 0.121517 1.95555 0.336125L8 6.38212L14.0464 0.335173C14.261 0.120565 14.5521 -5.05633e-09 14.8556 0C15.1591 5.05633e-09 15.4502 0.120565 15.6648 0.335173C15.8794 0.54978 16 0.84085 16 1.14435C16 1.44785 15.8794 1.73892 15.6648 1.95353L9.61845 8.00048L15.6629 14.0465Z"/>
</svg>
