<svg width="15" height="18" viewBox="0 0 15 18" fill="black" xmlns="http://www.w3.org/2000/svg">
<path d="M6.5 17.5V15.5H4.5V13.5H6.5V11.4C5.18333 11.1667 4.104 10.5373 3.262 9.512C2.42 8.48667 1.99933 7.29933 2 5.95C2 4.43333 2.53767 3.146 3.613 2.088C4.68833 1.03 5.984 0.500667 7.5 0.5C9.01667 0.5 10.3127 1.02933 11.388 2.088C12.4633 3.14667 13.0007 4.434 13 5.95C13 7.3 12.579 8.48767 11.737 9.513C10.895 10.5383 9.816 11.1673 8.5 11.4V13.5H10.5V15.5H8.5V17.5H6.5ZM7.5 9.5C8.46667 9.5 9.29167 9.15833 9.975 8.475C10.6583 7.79167 11 6.96667 11 6C11 5.03333 10.6583 4.20833 9.975 3.525C9.29167 2.84167 8.46667 2.5 7.5 2.5C6.53333 2.5 5.70833 2.84167 5.025 3.525C4.34167 4.20833 4 5.03333 4 6C4 6.96667 4.34167 7.79167 5.025 8.475C5.70833 9.15833 6.53333 9.5 7.5 9.5Z"/>
</svg>
