<svg width="16" height="17" viewBox="0 0 16 17" fill="black" xmlns="http://www.w3.org/2000/svg">
<path d="M1.29436 16.5H14.7038C15.7264 16.5 16.3477 15.1279 15.7911 14.0713L9.08635 1.23372C8.96961 1.00896 8.80812 0.823835 8.61689 0.695552C8.42566 0.567269 8.21092 0.5 7.99262 0.5C7.77433 0.5 7.55958 0.567269 7.36835 0.695552C7.17712 0.823835 7.01563 1.00896 6.89889 1.23372L0.207101 14.0713C0.0808301 14.3091 0.00959213 14.5841 0.000902643 14.8672C-0.00778684 15.1503 0.0463941 15.431 0.15773 15.6797C0.269066 15.9284 0.433429 16.1359 0.633479 16.2803C0.833529 16.4247 1.06185 16.5006 1.29436 16.5Z"/>
</svg>
