<svg width="20" height="21" viewBox="0 0 20 21" fill="none" xmlns="http://www.w3.org/2000/svg">
<path d="M0.909091 1.91111L2.07273 0.5L17.2727 19.0778L16.1182 20.5L13.3182 17.0778C12.2727 17.5 11.1636 17.7222 10 17.7222C5.45455 17.7222 1.57273 14.2667 0 9.38889C0.627273 7.43333 1.62727 5.71111 2.9 4.34444L0.909091 1.91111ZM10 6.05556C10.7233 6.05556 11.417 6.40674 11.9285 7.03187C12.4399 7.65699 12.7273 8.50483 12.7273 9.38889C12.7277 9.7673 12.6755 10.143 12.5727 10.5L9.09091 6.24444C9.38297 6.11887 9.69039 6.05499 10 6.05556ZM10 1.05556C14.5455 1.05556 18.4273 4.51111 20 9.38889C19.258 11.6925 17.9972 13.6919 16.3636 15.1556L15.0727 13.5667C16.3299 12.5038 17.3438 11.0656 18.0182 9.38889C17.2832 7.55549 16.1422 6.01086 14.7248 4.93056C13.3074 3.85027 11.6704 3.27764 10 3.27778C9.00909 3.27778 8.03636 3.47778 7.12727 3.83333L5.72727 2.13333C7.03636 1.44444 8.48182 1.05556 10 1.05556ZM1.98182 9.38889C2.71676 11.2223 3.85779 12.7669 5.27521 13.8472C6.69263 14.9275 8.32958 15.5001 10 15.5C10.6273 15.5 11.2455 15.4222 11.8182 15.2667L9.74546 12.7222C9.11288 12.6394 8.52257 12.2943 8.0727 11.7445C7.62284 11.1946 7.34053 10.4732 7.27273 9.7L4.18182 5.91111C3.28182 6.85556 2.52727 8.03333 1.98182 9.38889Z" fill="white"/>
</svg>
