<svg width="20" height="18" viewBox="0 0 20 18" fill="none" xmlns="http://www.w3.org/2000/svg">
<path d="M0.909091 1.27L2.07273 0L17.2727 16.72L16.1182 18L13.3182 14.92C12.2727 15.3 11.1636 15.5 10 15.5C5.45455 15.5 1.57273 12.39 0 8C0.627273 6.24 1.62727 4.69 2.9 3.46L0.909091 1.27ZM10 5C10.7233 5 11.417 5.31607 11.9285 5.87868C12.4399 6.44129 12.7273 7.20435 12.7273 8C12.7277 8.34057 12.6755 8.67873 12.5727 9L9.09091 5.17C9.38297 5.05698 9.69039 4.99949 10 5ZM10 0.5C14.5455 0.5 18.4273 3.61 20 8C19.258 10.0732 17.9972 11.8727 16.3636 13.19L15.0727 11.76C16.3299 10.8034 17.3438 9.50906 18.0182 8C17.2832 6.34994 16.1422 4.95977 14.7248 3.9875C13.3074 3.01524 11.6704 2.49988 10 2.5C9.00909 2.5 8.03636 2.68 7.12727 3L5.72727 1.47C7.03636 0.85 8.48182 0.5 10 0.5ZM1.98182 8C2.71676 9.65006 3.85779 11.0402 5.27521 12.0125C6.69263 12.9848 8.32958 13.5001 10 13.5C10.6273 13.5 11.2455 13.43 11.8182 13.29L9.74546 11C9.11288 10.9254 8.52257 10.6149 8.0727 10.12C7.62284 9.62518 7.34053 8.97584 7.27273 8.28L4.18182 4.87C3.28182 5.72 2.52727 6.78 1.98182 8Z"/>
</svg>
