<svg width="18" height="19" viewBox="0 0 18 19" fill="none" xmlns="http://www.w3.org/2000/svg">
<path d="M13.7812 0.5H4.21875C1.8888 0.5 0 2.3888 0 4.71875V14.2812C0 16.6112 1.8888 18.5 4.21875 18.5H13.7812C16.1112 18.5 18 16.6112 18 14.2812V4.71875C18 2.3888 16.1112 0.5 13.7812 0.5Z" fill="#0A66C2"/>
<path d="M12.9878 15.806H15.0458C15.1204 15.806 15.1919 15.7764 15.2447 15.7236C15.2974 15.6709 15.3271 15.5994 15.3271 15.5248L15.3281 11.1765C15.3281 8.90382 14.8384 7.15691 12.1825 7.15691C11.1729 7.11936 10.2208 7.63981 9.70699 8.50887C9.70448 8.5131 9.70066 8.51638 9.6961 8.51822C9.69155 8.52007 9.68652 8.52037 9.68178 8.51909C9.67704 8.51781 9.67285 8.51501 9.66984 8.51112C9.66684 8.50723 9.6652 8.50247 9.66516 8.49755V7.64797C9.66516 7.57338 9.63552 7.50184 9.58278 7.44909C9.53004 7.39635 9.4585 7.36672 9.38391 7.36672H7.43084C7.35624 7.36672 7.28471 7.39635 7.23196 7.44909C7.17922 7.50184 7.14959 7.57338 7.14959 7.64797V15.5244C7.14959 15.599 7.17922 15.6705 7.23196 15.7232C7.28471 15.776 7.35624 15.8056 7.43084 15.8056H9.48874C9.56333 15.8056 9.63487 15.776 9.68762 15.7232C9.74036 15.6705 9.76999 15.599 9.76999 15.5244V11.631C9.76999 10.5301 9.97882 9.46393 11.3437 9.46393C12.6891 9.46393 12.7065 10.7236 12.7065 11.7023V15.5247C12.7065 15.5993 12.7362 15.6709 12.7889 15.7236C12.8416 15.7763 12.9132 15.806 12.9878 15.806ZM2.67188 4.69252C2.67188 5.52678 3.35862 6.21317 4.19288 6.21317C5.02692 6.2131 5.71324 5.52629 5.71324 4.69224C5.7131 3.8582 5.02671 3.17188 4.19259 3.17188C3.35827 3.17188 2.67188 3.85834 2.67188 4.69252ZM3.16118 15.806H5.22183C5.29642 15.806 5.36796 15.7763 5.4207 15.7236C5.47345 15.6709 5.50308 15.5993 5.50308 15.5247V7.64797C5.50308 7.57338 5.47345 7.50184 5.4207 7.44909C5.36796 7.39635 5.29642 7.36672 5.22183 7.36672H3.16118C3.08659 7.36672 3.01505 7.39635 2.96231 7.44909C2.90956 7.50184 2.87993 7.57338 2.87993 7.64797V15.5247C2.87993 15.5993 2.90956 15.6709 2.96231 15.7236C3.01505 15.7763 3.08659 15.806 3.16118 15.806Z" fill="white"/>
</svg>
