<svg width="14" height="17" viewBox="0 0 14 17" fill="black" xmlns="http://www.w3.org/2000/svg">
<path d="M7 0.5C3.40643 0.5 0.5 3.004 0.5 6.1C0.5 10.3 7 16.5 7 16.5C7 16.5 13.5 10.3 13.5 6.1C13.5 3.004 10.5936 0.5 7 0.5ZM7 8.1C6.38432 8.1 5.79385 7.88929 5.3585 7.51421C4.92315 7.13914 4.67857 6.63043 4.67857 6.1C4.67857 5.56957 4.92315 5.06086 5.3585 4.68579C5.79385 4.31071 6.38432 4.1 7 4.1C7.61568 4.1 8.20615 4.31071 8.6415 4.68579C9.07685 5.06086 9.32143 5.56957 9.32143 6.1C9.32143 6.63043 9.07685 7.13914 8.6415 7.51421C8.20615 7.88929 7.61568 8.1 7 8.1Z"/>
</svg>
