<svg width="16" height="17" viewBox="0 0 16 17" fill="black" xmlns="http://www.w3.org/2000/svg">
<path d="M3.21778 7.42444C4.49778 9.94 6.56 11.9933 9.07556 13.2822L11.0311 11.3267C11.2711 11.0867 11.6267 11.0067 11.9378 11.1133C12.9333 11.4422 14.0089 11.62 15.1111 11.62C15.6 11.62 16 12.02 16 12.5089V15.6111C16 16.1 15.6 16.5 15.1111 16.5C6.76444 16.5 0 9.73556 0 1.38889C0 0.9 0.4 0.5 0.888889 0.5H4C4.48889 0.5 4.88889 0.9 4.88889 1.38889C4.88889 2.5 5.06667 3.56667 5.39556 4.56222C5.49333 4.87333 5.42222 5.22 5.17333 5.46889L3.21778 7.42444Z"/>
</svg>
