<svg width="22" height="17" viewBox="0 0 22 17" fill="black" xmlns="http://www.w3.org/2000/svg">
<path d="M13.8636 10.5C11.315 10.5 6.22727 11.83 6.22727 14.5V16.5H21.5V14.5C21.5 11.83 16.4123 10.5 13.8636 10.5ZM5.27273 6.5V3.5H3.36364V6.5H0.5V8.5H3.36364V11.5H5.27273V8.5H8.13636V6.5M13.8636 8.5C14.8763 8.5 15.8474 8.07857 16.5635 7.32843C17.2795 6.57828 17.6818 5.56087 17.6818 4.5C17.6818 3.43913 17.2795 2.42172 16.5635 1.67157C15.8474 0.921427 14.8763 0.5 13.8636 0.5C12.851 0.5 11.8798 0.921427 11.1638 1.67157C10.4477 2.42172 10.0455 3.43913 10.0455 4.5C10.0455 5.56087 10.4477 6.57828 11.1638 7.32843C11.8798 8.07857 12.851 8.5 13.8636 8.5Z"/>
</svg>
