<svg width="18" height="17" viewBox="0 0 18 17" fill="none" xmlns="http://www.w3.org/2000/svg">
<path d="M7.78571 7.7V5.3L11.8333 8.5L7.78571 11.7V9.3H0.5V7.7H7.78571ZM1.68029 10.9H3.39971C3.9648 12.2753 4.99586 13.4138 6.31652 14.1208C7.63719 14.8277 9.16539 15.0593 10.6397 14.7758C12.1141 14.4923 13.4429 13.7114 14.399 12.5666C15.355 11.4218 15.8789 9.98431 15.881 8.5C15.8818 7.01413 15.3594 5.57427 14.4035 4.42738C13.4475 3.28049 12.1176 2.49805 10.6417 2.21425C9.16581 1.93045 7.63599 2.16299 6.31463 2.87198C4.99327 3.58097 3.96271 4.72222 3.39971 6.1H1.68029C2.71162 2.8544 5.77971 0.5 9.40476 0.5C13.8758 0.5 17.5 4.0816 17.5 8.5C17.5 12.9184 13.8758 16.5 9.40476 16.5C5.77971 16.5 2.71162 14.1456 1.68029 10.9Z" fill="white"/>
</svg>
