<svg width="18" height="19" viewBox="0 0 18 19" fill="none" xmlns="http://www.w3.org/2000/svg">
<g clip-path="url(#clip0_20_56)">
<path d="M17.9914 9.66838C17.9914 8.93093 17.9302 8.39279 17.7976 7.83472H9.17929V11.1632H14.2381C14.1361 11.9904 13.5854 13.2361 12.3614 14.0732L12.3443 14.1846L15.0692 16.2472L15.258 16.2657C16.9919 14.701 17.9914 12.399 17.9914 9.66838Z" fill="#4285F4"/>
<path d="M9.17929 18.4382C11.6577 18.4382 13.7383 17.6409 15.258 16.2657L12.3614 14.0732C11.5863 14.6014 10.546 14.9701 9.17929 14.9701C6.75189 14.9701 4.69167 13.4055 3.95725 11.243L3.8496 11.2519L1.01615 13.3945L0.979095 13.4952C2.48856 16.4251 5.58913 18.4382 9.17929 18.4382Z" fill="#34A853"/>
<path d="M3.95726 11.243C3.76348 10.6849 3.65133 10.0869 3.65133 9.46908C3.65133 8.85117 3.76348 8.25325 3.94706 7.69519L3.94193 7.57633L1.07297 5.39929L0.979102 5.44292C0.356977 6.65874 0 8.02406 0 9.46908C0 10.9141 0.356977 12.2793 0.979102 13.4952L3.95726 11.243Z" fill="#FBBC05"/>
<path d="M9.17929 3.96802C10.9029 3.96802 12.0656 4.69551 12.7286 5.30346L15.3192 2.83196C13.7282 1.38695 11.6577 0.5 9.17929 0.5C5.58913 0.5 2.48856 2.51305 0.979095 5.44292L3.94706 7.69519C4.69167 5.53265 6.75189 3.96802 9.17929 3.96802Z" fill="#EB4335"/>
</g>
<defs>
<clipPath id="clip0_20_56">
<rect width="18" height="18" fill="white" transform="translate(0 0.5)"/>
</clipPath>
</defs>
</svg>
