<svg width="16" height="17" viewBox="0 0 16 17" fill="none" xmlns="http://www.w3.org/2000/svg">
<path d="M15.7507 0.607285C15.9471 0.75006 16.0275 0.940428 15.9918 1.17839L13.7062 14.8848C13.6765 15.0574 13.5813 15.1912 13.4206 15.2864C13.3372 15.334 13.245 15.3578 13.1438 15.3578C13.0783 15.3578 13.0069 15.3429 12.9295 15.3132L8.22459 13.3946L5.56412 16.3126C5.45698 16.4375 5.31712 16.5 5.14451 16.5C5.06119 16.5 4.99274 16.4881 4.93917 16.4643C4.82609 16.4227 4.73681 16.3528 4.67134 16.2546C4.60587 16.1564 4.57313 16.0479 4.57313 15.9289V11.8955L0.359225 10.1733C0.139007 10.09 0.01997 9.92637 0.00211447 9.68246C-0.0157411 9.45045 0.0794885 9.27496 0.287803 9.15598L15.1436 0.589438C15.3519 0.464509 15.5543 0.470458 15.7507 0.607285ZM12.6974 13.9836L14.6704 2.17782L1.86802 9.55753L4.86775 10.78L12.5724 5.07795L8.30494 12.19L12.6974 13.9836Z" fill="white"/>
</svg>
