<svg width="19" height="20" viewBox="0 0 19 20" fill="black" xmlns="http://www.w3.org/2000/svg">
<path d="M6.04663 0.515865C7.16306 0.336573 8.34572 1.69708 8.68633 3.57438C9.02694 5.44113 8.41195 7.10749 7.29552 7.29733C6.18855 7.48717 4.99643 6.12666 4.64636 4.24936C4.29629 2.38261 4.9302 0.716251 6.04663 0.515865ZM12.8114 0.515865C13.9373 0.716251 14.5618 2.38261 14.2306 4.24936C13.8711 6.12666 12.6885 7.48717 11.572 7.29733C10.4461 7.10749 9.83115 5.44113 10.1812 3.57438C10.5218 1.69708 11.7045 0.336573 12.8114 0.515865ZM0.984846 5.3673C2.06343 4.85052 3.52993 5.78916 4.29629 7.42389C5.01535 9.09025 4.76936 10.841 3.70023 11.3578C2.63111 11.8746 1.17407 10.9465 0.42663 9.29063C-0.320811 7.63482 -0.0558953 5.87354 0.984846 5.3673ZM18.0152 5.3673C19.0559 5.87354 19.3208 7.63482 18.5734 9.29063C17.8259 10.9465 16.3689 11.8746 15.2998 11.3578C14.2306 10.841 13.9846 9.09025 14.7037 7.42389C15.4701 5.78916 16.9366 4.85052 18.0152 5.3673ZM16.4351 16.7365C16.473 17.7279 15.7918 18.8248 14.9781 19.2361C13.2845 20.1009 11.2787 18.308 9.39593 18.308C7.51313 18.308 5.48842 20.1747 3.82323 19.2361C2.8771 18.7193 2.22427 17.3482 2.34727 16.2092C2.51757 14.6378 4.21114 13.794 5.21404 12.6445C6.54808 11.1574 7.49421 8.36253 9.39593 8.36253C11.2882 8.36253 12.2911 11.1152 13.5684 12.6445C14.6186 13.9311 16.3689 15.0174 16.4351 16.7365Z"/>
</svg>