<svg width="21" height="21" viewBox="0 0 21 21" fill="none" xmlns="http://www.w3.org/2000/svg">
<path d="M8.74967 4.01086C9.47717 3.88818 10.2478 4.81906 10.4698 6.10352C10.6917 7.38077 10.291 8.52091 9.56348 8.6508C8.84215 8.78069 8.06533 7.84982 7.83721 6.56535C7.6091 5.2881 8.02217 4.14796 8.74967 4.01086ZM13.1578 4.01086C13.8915 4.14796 14.2984 5.2881 14.0826 6.56535C13.8483 7.84982 13.0777 8.78069 12.3502 8.6508C11.6165 8.52091 11.2158 7.38077 11.4439 6.10352C11.6658 4.81906 12.4365 3.88818 13.1578 4.01086ZM5.45126 7.33026C6.1541 6.97667 7.10971 7.6189 7.6091 8.7374C8.07766 9.87754 7.91736 11.0754 7.22069 11.429C6.52402 11.7826 5.57457 11.1476 5.08751 10.0146C4.60046 8.88172 4.77309 7.67663 5.45126 7.33026ZM16.5487 7.33026C17.2269 7.67663 17.3995 8.88172 16.9125 10.0146C16.4254 11.1476 15.476 11.7826 14.7793 11.429C14.0826 11.0754 13.9223 9.87754 14.3909 8.7374C14.8903 7.6189 15.8459 6.97667 16.5487 7.33026ZM15.5191 15.1092C15.5438 15.7875 15.0999 16.538 14.5697 16.8194C13.4661 17.4111 12.1591 16.1844 10.9322 16.1844C9.70528 16.1844 8.38592 17.4617 7.30084 16.8194C6.68431 16.4658 6.25891 15.5277 6.33906 14.7484C6.45003 13.6732 7.55361 13.0959 8.20713 12.3094C9.07643 11.2919 9.69295 9.37963 10.9322 9.37963C12.1652 9.37963 12.8187 11.263 13.651 12.3094C14.3354 13.1897 15.476 13.933 15.5191 15.1092Z" fill="white"/>
<line x1="1" y1="0.5" x2="21" y2="0.5" stroke="white"/>
<line x1="1.45239" y1="20" x2="1.45239" y2="1" stroke="white"/>
<line x1="20.5" y1="20" x2="20.5" y2="1" stroke="white"/>
<line x1="1" y1="20.5" x2="21" y2="20.5" stroke="white"/>
</svg>
