<svg width="25" height="26" viewBox="0 0 25 26" xmlns="http://www.w3.org/2000/svg">
<path d="M9.04663 3.51587C10.1631 3.33657 11.3457 4.69708 11.6863 6.57438C12.0269 8.44113 11.412 10.1075 10.2955 10.2973C9.18855 10.4872 7.99643 9.12666 7.64636 7.24936C7.29629 5.38261 7.9302 3.71625 9.04663 3.51587ZM15.8114 3.51587C16.9373 3.71625 17.5618 5.38261 17.2306 7.24936C16.8711 9.12666 15.6885 10.4872 14.572 10.2973C13.4461 10.1075 12.8311 8.44113 13.1812 6.57438C13.5218 4.69708 14.7045 3.33657 15.8114 3.51587ZM3.98485 8.3673C5.06343 7.85052 6.52993 8.78916 7.29629 10.4239C8.01535 12.0903 7.76936 13.841 6.70023 14.3578C5.63111 14.8746 4.17407 13.9465 3.42663 12.2906C2.67919 10.6348 2.9441 8.87354 3.98485 8.3673ZM21.0152 8.3673C22.0559 8.87354 22.3208 10.6348 21.5734 12.2906C20.8259 13.9465 19.3689 14.8746 18.2998 14.3578C17.2306 13.841 16.9846 12.0903 17.7037 10.4239C18.4701 8.78916 19.9366 7.85052 21.0152 8.3673ZM19.4351 19.7365C19.473 20.7279 18.7918 21.8248 17.9781 22.2361C16.2845 23.1009 14.2787 21.308 12.3959 21.308C10.5131 21.308 8.48842 23.1747 6.82323 22.2361C5.8771 21.7193 5.22427 20.3482 5.34727 19.2092C5.51757 17.6378 7.21114 16.794 8.21404 15.6445C9.54808 14.1574 10.4942 11.3625 12.3959 11.3625C14.2882 11.3625 15.2911 14.1152 16.5684 15.6445C17.6186 16.9311 19.3689 18.0174 19.4351 19.7365Z" fill="white"/>
<rect x="0.5" y="1" width="24" height="24" stroke="white"/>
</svg>
