<svg width="16" height="17" viewBox="0 0 16 17" fill="none" xmlns="http://www.w3.org/2000/svg">
<path d="M15.6469 3.00551C15.5551 2.52123 15.3761 2.07974 15.1277 1.72498C14.8792 1.37022 14.57 1.11458 14.2309 0.983521C12.9892 0.5 7.99202 0.5 7.99202 0.5C7.99202 0.5 2.99456 0.514636 1.75292 0.998157C1.41375 1.12923 1.10456 1.38488 0.856116 1.73965C0.607675 2.09443 0.428658 2.53594 0.336893 3.02023C-0.0386761 6.17035 -0.184366 10.9704 0.347205 13.9945C0.43898 14.4788 0.618001 14.9203 0.866442 15.275C1.11488 15.6298 1.42407 15.8854 1.76323 16.0165C3.00488 16.5 8.00221 16.5 8.00221 16.5C8.00221 16.5 12.9995 16.5 14.2411 16.0165C14.5802 15.8854 14.8894 15.6298 15.1379 15.275C15.3863 14.9203 15.5654 14.4788 15.6572 13.9945C16.0533 10.8399 16.1753 6.04282 15.6469 3.00551Z" fill="#FF0000"/>
<path d="M6.40143 11.9285L10.547 8.49996L6.40143 5.0714V11.9285Z" fill="white"/>
</svg>
