<svg width="341" height="154" viewBox="0 0 341 154" fill="none" xmlns="http://www.w3.org/2000/svg">
<line x1="36.9753" y1="45.3984" x2="125.992" y2="45.3984" stroke="#7286D3" stroke-width="5.34099"/>
<path d="M160.792 0.0401384C163.931 -0.41346 167.255 3.02855 168.213 7.778C169.17 12.5008 167.441 16.7166 164.303 17.1968C161.191 17.6771 157.84 14.2351 156.856 9.48567C155.872 4.7629 157.654 0.547102 160.792 0.0401384ZM179.809 0.0401384C182.973 0.547102 184.729 4.7629 183.798 9.48567C182.787 14.2351 179.463 17.6771 176.324 17.1968C173.159 16.7166 171.431 12.5008 172.415 7.778C173.372 3.02855 176.697 -0.41346 179.809 0.0401384ZM146.563 12.314C149.595 11.0066 153.718 13.3813 155.872 17.517C157.893 21.7328 157.202 26.1621 154.196 27.4695C151.191 28.777 147.095 26.4289 144.994 22.2398C142.893 18.0507 143.638 13.5947 146.563 12.314ZM194.436 12.314C197.362 13.5947 198.107 18.0507 196.006 22.2398C193.904 26.4289 189.809 28.777 186.803 27.4695C183.798 26.1621 183.106 21.7328 185.128 17.517C187.282 13.3813 191.404 11.0066 194.436 12.314ZM189.995 41.0775C190.101 43.5856 188.186 46.3606 185.899 47.4012C181.138 49.5891 175.5 45.0531 170.207 45.0531C164.915 45.0531 159.223 49.7759 154.542 47.4012C151.883 46.0938 150.047 42.6251 150.393 39.7434C150.872 35.7677 155.633 33.6331 158.452 30.7248C162.202 26.9626 164.861 19.8918 170.207 19.8918C175.527 19.8918 178.346 26.8558 181.936 30.7248C184.888 33.98 189.809 36.7283 189.995 41.0775Z" fill="#7286D3"/>
<line x1="215.008" y1="45.3984" x2="304.025" y2="45.3984" stroke="#7286D3" stroke-width="5.34099"/>
<path d="M60.8404 97.7358V101.148H43.7152V97.7358H60.8404ZM44.3672 84.1312V115.774H40.1728V84.1312H44.3672ZM64.4915 84.1312V115.774H60.3189V84.1312H64.4915ZM81.0952 116.208C79.458 116.208 77.9729 115.933 76.64 115.383C75.3216 114.818 74.1842 114.028 73.228 113.014C72.2862 112 71.5618 110.797 71.0547 109.406C70.5476 108.015 70.2941 106.494 70.2941 104.842V103.93C70.2941 102.017 70.5766 100.315 71.1417 98.8224C71.7067 97.3156 72.4746 96.0407 73.4453 94.9975C74.416 93.9543 75.5172 93.1647 76.7487 92.6286C77.9802 92.0926 79.2551 91.8245 80.5736 91.8245C82.2542 91.8245 83.7031 92.1143 84.9201 92.6938C86.1516 93.2734 87.1585 94.0847 87.9409 95.1279C88.7233 96.1566 89.3028 97.3736 89.6795 98.779C90.0562 100.17 90.2446 101.691 90.2446 103.343V105.147H72.6847V101.865H86.224V101.561C86.1661 100.518 85.9488 99.5034 85.5721 98.5182C85.2099 97.533 84.6303 96.7216 83.8335 96.0841C83.0366 95.4466 81.95 95.1279 80.5736 95.1279C79.6608 95.1279 78.8205 95.3235 78.0526 95.7147C77.2847 96.0914 76.6255 96.6564 76.075 97.4098C75.5244 98.1632 75.097 99.0832 74.7927 100.17C74.4885 101.256 74.3364 102.51 74.3364 103.93V104.842C74.3364 105.958 74.4885 107.008 74.7927 107.994C75.1115 108.964 75.5679 109.819 76.1619 110.558C76.7704 111.297 77.5021 111.876 78.3569 112.297C79.2262 112.717 80.2114 112.927 81.3125 112.927C82.7324 112.927 83.9349 112.637 84.9201 112.058C85.9053 111.478 86.7674 110.703 87.5063 109.732L89.9403 111.666C89.4332 112.434 88.7885 113.166 88.0061 113.861C87.2237 114.557 86.2603 115.122 85.1157 115.556C83.9856 115.991 82.6454 116.208 81.0952 116.208ZM99.307 82.3926V115.774H95.2648V82.3926H99.307ZM109.782 96.7796V124.815H105.74V92.2592H109.434L109.782 96.7796ZM125.625 103.821V104.277C125.625 105.987 125.422 107.573 125.017 109.037C124.611 110.486 124.017 111.746 123.235 112.818C122.467 113.89 121.518 114.723 120.388 115.317C119.258 115.911 117.961 116.208 116.497 116.208C115.005 116.208 113.687 115.962 112.542 115.47C111.398 114.977 110.427 114.26 109.63 113.318C108.833 112.376 108.196 111.246 107.718 109.928C107.254 108.609 106.935 107.124 106.761 105.473V103.039C106.935 101.3 107.261 99.7424 107.739 98.366C108.217 96.9896 108.848 95.8161 109.63 94.8454C110.427 93.8602 111.39 93.114 112.52 92.6069C113.651 92.0853 114.954 91.8245 116.432 91.8245C117.91 91.8245 119.221 92.1143 120.366 92.6938C121.51 93.2589 122.474 94.0702 123.256 95.1279C124.039 96.1855 124.625 97.4533 125.017 98.9311C125.422 100.394 125.625 102.024 125.625 103.821ZM121.583 104.277V103.821C121.583 102.647 121.46 101.546 121.213 100.518C120.967 99.4744 120.583 98.5616 120.062 97.7793C119.555 96.9824 118.903 96.3594 118.106 95.9103C117.309 95.4466 116.36 95.2148 115.259 95.2148C114.245 95.2148 113.361 95.3887 112.607 95.7364C111.868 96.0841 111.238 96.555 110.717 97.149C110.195 97.7286 109.768 98.395 109.434 99.1484C109.116 99.8873 108.877 100.655 108.717 101.452V107.081C109.007 108.095 109.413 109.051 109.934 109.949C110.456 110.833 111.151 111.55 112.021 112.101C112.89 112.637 113.984 112.905 115.302 112.905C116.389 112.905 117.323 112.681 118.106 112.231C118.903 111.768 119.555 111.138 120.062 110.341C120.583 109.544 120.967 108.631 121.213 107.602C121.46 106.559 121.583 105.451 121.583 104.277ZM132.688 84.1312H136.752L147.119 109.928L157.463 84.1312H161.549L148.683 115.774H145.51L132.688 84.1312ZM131.363 84.1312H134.948L135.535 103.43V115.774H131.363V84.1312ZM159.267 84.1312H162.853V115.774H158.68V103.43L159.267 84.1312ZM179.37 116.208C177.733 116.208 176.247 115.933 174.915 115.383C173.596 114.818 172.459 114.028 171.503 113.014C170.561 112 169.836 110.797 169.329 109.406C168.822 108.015 168.569 106.494 168.569 104.842V103.93C168.569 102.017 168.851 100.315 169.416 98.8224C169.981 97.3156 170.749 96.0407 171.72 94.9975C172.691 93.9543 173.792 93.1647 175.023 92.6286C176.255 92.0926 177.53 91.8245 178.848 91.8245C180.529 91.8245 181.978 92.1143 183.195 92.6938C184.426 93.2734 185.433 94.0847 186.215 95.1279C186.998 96.1566 187.577 97.3736 187.954 98.779C188.331 100.17 188.519 101.691 188.519 103.343V105.147H170.959V101.865H184.499V101.561C184.441 100.518 184.223 99.5034 183.847 98.5182C183.484 97.533 182.905 96.7216 182.108 96.0841C181.311 95.4466 180.225 95.1279 178.848 95.1279C177.935 95.1279 177.095 95.3235 176.327 95.7147C175.559 96.0914 174.9 96.6564 174.349 97.4098C173.799 98.1632 173.372 99.0832 173.067 100.17C172.763 101.256 172.611 102.51 172.611 103.93V104.842C172.611 105.958 172.763 107.008 173.067 107.994C173.386 108.964 173.842 109.819 174.436 110.558C175.045 111.297 175.777 111.876 176.631 112.297C177.501 112.717 178.486 112.927 179.587 112.927C181.007 112.927 182.209 112.637 183.195 112.058C184.18 111.478 185.042 110.703 185.781 109.732L188.215 111.666C187.708 112.434 187.063 113.166 186.281 113.861C185.498 114.557 184.535 115.122 183.39 115.556C182.26 115.991 180.92 116.208 179.37 116.208ZM202.384 115.774H195.778L195.821 112.362H202.384C204.645 112.362 206.528 111.891 208.035 110.949C209.542 109.993 210.672 108.66 211.425 106.95C212.193 105.226 212.577 103.212 212.577 100.909V98.9746C212.577 97.1635 212.36 95.5553 211.925 94.1499C211.49 92.7301 210.853 91.5348 210.013 90.5641C209.172 89.5789 208.144 88.8327 206.927 88.3256C205.724 87.8185 204.34 87.565 202.776 87.565H195.647V84.1312H202.776C204.847 84.1312 206.738 84.4789 208.448 85.1744C210.157 85.8553 211.628 86.8478 212.86 88.1517C214.106 89.4412 215.062 91.006 215.728 92.846C216.395 94.6715 216.728 96.7289 216.728 99.018V100.909C216.728 103.198 216.395 105.262 215.728 107.103C215.062 108.928 214.098 110.486 212.838 111.775C211.592 113.064 210.085 114.057 208.317 114.752C206.564 115.433 204.587 115.774 202.384 115.774ZM198.016 84.1312V115.774H193.822V84.1312H198.016ZM236.809 110.341V92.2592H240.851V115.774H237.004L236.809 110.341ZM237.569 105.386L239.243 105.342C239.243 106.907 239.076 108.356 238.743 109.689C238.424 111.007 237.903 112.152 237.178 113.122C236.454 114.093 235.505 114.854 234.331 115.404C233.158 115.94 231.731 116.208 230.05 116.208C228.905 116.208 227.855 116.042 226.899 115.709C225.957 115.375 225.146 114.861 224.465 114.166C223.784 113.47 223.255 112.565 222.878 111.449C222.516 110.333 222.335 108.993 222.335 107.429V92.2592H226.355V107.472C226.355 108.53 226.471 109.406 226.703 110.102C226.949 110.783 227.275 111.326 227.681 111.732C228.101 112.123 228.565 112.398 229.072 112.557C229.594 112.717 230.13 112.796 230.68 112.796C232.39 112.796 233.745 112.47 234.744 111.818C235.744 111.152 236.461 110.261 236.896 109.145C237.345 108.015 237.569 106.762 237.569 105.386ZM261.801 111.21V82.3926H265.843V115.774H262.149L261.801 111.21ZM245.98 104.277V103.821C245.98 102.024 246.197 100.394 246.632 98.9311C247.081 97.4533 247.711 96.1855 248.523 95.1279C249.348 94.0702 250.326 93.2589 251.457 92.6938C252.601 92.1143 253.876 91.8245 255.281 91.8245C256.759 91.8245 258.049 92.0853 259.15 92.6069C260.265 93.114 261.207 93.8602 261.975 94.8454C262.757 95.8161 263.373 96.9896 263.822 98.366C264.272 99.7424 264.583 101.3 264.757 103.039V105.038C264.597 106.762 264.286 108.312 263.822 109.689C263.373 111.065 262.757 112.239 261.975 113.209C261.207 114.18 260.265 114.926 259.15 115.448C258.034 115.955 256.73 116.208 255.238 116.208C253.862 116.208 252.601 115.911 251.457 115.317C250.326 114.723 249.348 113.89 248.523 112.818C247.711 111.746 247.081 110.486 246.632 109.037C246.197 107.573 245.98 105.987 245.98 104.277ZM250.022 103.821V104.277C250.022 105.451 250.138 106.552 250.37 107.581C250.616 108.609 250.993 109.515 251.5 110.297C252.007 111.08 252.652 111.695 253.434 112.144C254.217 112.579 255.151 112.796 256.238 112.796C257.571 112.796 258.665 112.514 259.519 111.949C260.389 111.384 261.084 110.638 261.606 109.71C262.127 108.783 262.533 107.776 262.823 106.69V101.452C262.649 100.655 262.395 99.8873 262.062 99.1484C261.743 98.395 261.323 97.7286 260.802 97.149C260.294 96.555 259.664 96.0841 258.911 95.7364C258.172 95.3887 257.295 95.2148 256.281 95.2148C255.18 95.2148 254.231 95.4466 253.434 95.9103C252.652 96.3594 252.007 96.9824 251.5 97.7793C250.993 98.5616 250.616 99.4744 250.37 100.518C250.138 101.546 250.022 102.647 250.022 103.821ZM281.86 116.208C280.223 116.208 278.738 115.933 277.405 115.383C276.087 114.818 274.949 114.028 273.993 113.014C273.051 112 272.327 110.797 271.82 109.406C271.313 108.015 271.059 106.494 271.059 104.842V103.93C271.059 102.017 271.342 100.315 271.907 98.8224C272.472 97.3156 273.24 96.0407 274.211 94.9975C275.181 93.9543 276.282 93.1647 277.514 92.6286C278.745 92.0926 280.02 91.8245 281.339 91.8245C283.019 91.8245 284.468 92.1143 285.685 92.6938C286.917 93.2734 287.924 94.0847 288.706 95.1279C289.488 96.1566 290.068 97.3736 290.445 98.779C290.821 100.17 291.01 101.691 291.01 103.343V105.147H273.45V101.865H286.989V101.561C286.931 100.518 286.714 99.5034 286.337 98.5182C285.975 97.533 285.396 96.7216 284.599 96.0841C283.802 95.4466 282.715 95.1279 281.339 95.1279C280.426 95.1279 279.586 95.3235 278.818 95.7147C278.05 96.0914 277.391 96.6564 276.84 97.4098C276.29 98.1632 275.862 99.0832 275.558 100.17C275.254 101.256 275.102 102.51 275.102 103.93V104.842C275.102 105.958 275.254 107.008 275.558 107.994C275.877 108.964 276.333 109.819 276.927 110.558C277.536 111.297 278.267 111.876 279.122 112.297C279.991 112.717 280.977 112.927 282.078 112.927C283.498 112.927 284.7 112.637 285.685 112.058C286.67 111.478 287.533 110.703 288.271 109.732L290.706 111.666C290.198 112.434 289.554 113.166 288.771 113.861C287.989 114.557 287.025 115.122 285.881 115.556C284.751 115.991 283.411 116.208 281.86 116.208ZM300.485 84.1312L300.203 106.842H296.573L296.269 84.1312H300.485ZM296.139 113.753C296.139 113.101 296.334 112.55 296.725 112.101C297.131 111.652 297.725 111.427 298.507 111.427C299.275 111.427 299.862 111.652 300.268 112.101C300.688 112.55 300.898 113.101 300.898 113.753C300.898 114.376 300.688 114.912 300.268 115.361C299.862 115.81 299.275 116.035 298.507 116.035C297.725 116.035 297.131 115.81 296.725 115.361C296.334 114.912 296.139 114.376 296.139 113.753Z" fill="#7286D3"/>
<rect x="3.5638" y="68.5427" width="333.872" height="64.4623" stroke="#7286D3" stroke-width="5.34099"/>
<line x1="36.9753" y1="150.808" x2="304.025" y2="150.808" stroke="#7286D3" stroke-width="5.34099"/>
</svg>
