<svg width="19" height="21" viewBox="0 0 19 21" fill="black" xmlns="http://www.w3.org/2000/svg">
<path d="M13.5 15.4999C13.9167 15.4999 14.271 15.3539 14.563 15.0619C14.855 14.77 15.0007 14.416 15 14C15 13.5833 14.854 13.229 14.562 12.937C14.27 12.645 13.916 12.4993 13.5 12.5C13.0833 12.5 12.729 12.646 12.437 12.938C12.145 13.23 11.9993 13.584 12 14C12 14.4166 12.146 14.7709 12.438 15.0629C12.73 15.3549 13.084 15.5006 13.5 15.4999ZM13.5 18.4999C14.0167 18.4999 14.4917 18.3789 14.925 18.1369C15.3583 17.8949 15.7083 17.5743 15.975 17.1749C15.6083 16.9583 15.2167 16.7916 14.8 16.6749C14.3833 16.5583 13.95 16.4999 13.5 16.4999C13.05 16.4999 12.6167 16.5583 12.2 16.6749C11.7833 16.7916 11.3917 16.9583 11.025 17.1749C11.2917 17.5749 11.6417 17.8959 12.075 18.1379C12.5083 18.3799 12.9833 18.5006 13.5 18.4999ZM13.5 20.4999C12.1167 20.4999 10.9373 20.0123 9.962 19.0369C8.98667 18.0616 8.49933 16.8826 8.5 15.4999C8.5 14.1166 8.98767 12.9373 9.963 11.962C10.9383 10.9866 12.1173 10.4993 13.5 10.5C14.8833 10.5 16.0627 10.9876 17.038 11.963C18.0133 12.9383 18.5007 14.1173 18.5 15.4999C18.5 16.8833 18.0123 18.0626 17.037 19.0379C16.0617 20.0133 14.8827 20.5006 13.5 20.4999ZM8.5 20.4999C6.18333 19.9166 4.27067 18.5873 2.762 16.5119C1.25333 14.4366 0.499334 12.1326 0.5 9.59997V3.49999L8.5 0.5L16.5 3.49999V9.17497C16.0667 8.9583 15.579 8.79164 15.037 8.67497C14.495 8.55831 13.9827 8.49997 13.5 8.49997C11.5667 8.49997 9.91667 9.1833 8.55 10.55C7.18333 11.9166 6.5 13.5666 6.5 15.4999C6.5 16.5333 6.696 17.4666 7.088 18.2999C7.48 19.1333 7.97567 19.8583 8.575 20.4749C8.55833 20.4749 8.546 20.4793 8.538 20.4879C8.53 20.4966 8.51733 20.5006 8.5 20.4999Z"/>
</svg>
