<svg width="21" height="20" viewBox="0 0 21 20" fill="none" xmlns="http://www.w3.org/2000/svg">
<path d="M10.5 15C10.7833 15 11.021 14.904 11.213 14.712C11.405 14.52 11.5007 14.2827 11.5 14C11.5 13.7167 11.404 13.479 11.212 13.287C11.02 13.095 10.7827 12.9993 10.5 13C10.2167 13 9.979 13.096 9.787 13.288C9.595 13.48 9.49933 13.7173 9.5 14C9.5 14.2833 9.596 14.521 9.788 14.713C9.98 14.905 10.2173 15.0007 10.5 15ZM9.5 11H11.5V5H9.5V11ZM10.5 20C9.11667 20 7.81667 19.7373 6.6 19.212C5.38333 18.6867 4.325 17.9743 3.425 17.075C2.525 16.175 1.81267 15.1167 1.288 13.9C0.763333 12.6833 0.500667 11.3833 0.5 10C0.5 8.61667 0.762667 7.31667 1.288 6.1C1.81333 4.88333 2.52567 3.825 3.425 2.925C4.325 2.025 5.38333 1.31267 6.6 0.788C7.81667 0.263333 9.11667 0.000666667 10.5 0C11.8833 0 13.1833 0.262667 14.4 0.788C15.6167 1.31333 16.675 2.02567 17.575 2.925C18.475 3.825 19.1877 4.88333 19.713 6.1C20.2383 7.31667 20.5007 8.61667 20.5 10C20.5 11.3833 20.2373 12.6833 19.712 13.9C19.1867 15.1167 18.4743 16.175 17.575 17.075C16.675 17.975 15.6167 18.6877 14.4 19.213C13.1833 19.7383 11.8833 20.0007 10.5 20Z" fill="white"/>
</svg>
