<svg width="21" height="20" viewBox="0 0 21 20" fill="black" xmlns="http://www.w3.org/2000/svg">
<path d="M0.5 20L10.5 0L20.5 20H0.5ZM10.5 16.8421C10.7576 16.8421 10.9736 16.7411 11.1482 16.5389C11.3227 16.3368 11.4097 16.087 11.4091 15.7895C11.4091 15.4912 11.3218 15.2411 11.1473 15.0389C10.9727 14.8368 10.757 14.7361 10.5 14.7368C10.2424 14.7368 10.0264 14.8379 9.85182 15.04C9.67727 15.2421 9.5903 15.4919 9.59091 15.7895C9.59091 16.0877 9.67818 16.3379 9.85273 16.54C10.0273 16.7421 10.243 16.8428 10.5 16.8421ZM9.59091 13.6842H11.4091V8.42105H9.59091V13.6842Z"/>
</svg>
