<svg width="17" height="16" viewBox="0 0 17 16" fill="black" xmlns="http://www.w3.org/2000/svg">
<path d="M9.43739 15.2037L16.2175 8.68517C16.3202 8.5864 16.3931 8.47941 16.4363 8.36418C16.4794 8.24895 16.5007 8.1255 16.5 7.99381C16.5 7.86212 16.4784 7.73866 16.4353 7.62344C16.3921 7.50821 16.3195 7.40121 16.2175 7.30245L9.43739 0.783914C9.24906 0.602844 9.01347 0.508359 8.73062 0.500457C8.44777 0.492556 8.20396 0.587042 7.99919 0.783914C7.79374 0.964985 7.68655 1.19149 7.67765 1.46342C7.66875 1.73536 7.76737 1.96976 7.97351 2.16663L13.0072 7.00615H1.52729C1.23622 7.00615 0.992074 7.10097 0.794835 7.2906C0.597596 7.48023 0.499318 7.71463 0.500003 7.99381C0.500003 8.27364 0.598281 8.50838 0.794835 8.69801C0.991389 8.88764 1.23554 8.98212 1.52729 8.98147H13.0072L7.97351 13.821C7.78517 14.0021 7.68655 14.2325 7.67765 14.5123C7.66875 14.7922 7.76737 15.0226 7.97351 15.2037C8.16185 15.4012 8.40155 15.5 8.69261 15.5C8.98367 15.5 9.23194 15.4012 9.43739 15.2037Z" />
</svg>
