<svg width="17" height="17" viewBox="0 0 17 17" fill="black" xmlns="http://www.w3.org/2000/svg">
<path fill-rule="evenodd" clip-rule="evenodd" d="M1.34211 0.5C1.11877 0.5 0.904572 0.620399 0.746647 0.834711C0.588722 1.04902 0.5 1.33969 0.5 1.64278C0.5 1.94586 0.588722 2.23653 0.746647 2.45084C0.904572 2.66515 1.11877 2.78555 1.34211 2.78555H15.6579C15.8812 2.78555 16.0954 2.66515 16.2534 2.45084C16.4113 2.23653 16.5 1.94586 16.5 1.64278C16.5 1.33969 16.4113 1.04902 16.2534 0.834711C16.0954 0.620399 15.8812 0.5 15.6579 0.5H1.34211ZM0.5 8.49943C0.5 8.19635 0.588722 7.90568 0.746647 7.69136C0.904572 7.47705 1.11877 7.35665 1.34211 7.35665H15.6579C15.8812 7.35665 16.0954 7.47705 16.2534 7.69136C16.4113 7.90568 16.5 8.19635 16.5 8.49943C16.5 8.80251 16.4113 9.09318 16.2534 9.30749C16.0954 9.5218 15.8812 9.6422 15.6579 9.6422H1.34211C1.11877 9.6422 0.904572 9.5218 0.746647 9.30749C0.588722 9.09318 0.5 8.80251 0.5 8.49943ZM0.5 15.3572C0.5 15.0541 0.588722 14.7635 0.746647 14.5492C0.904572 14.3348 1.11877 14.2144 1.34211 14.2144H15.6579C15.8812 14.2144 16.0954 14.3348 16.2534 14.5492C16.4113 14.7635 16.5 15.0541 16.5 15.3572C16.5 15.6603 16.4113 15.951 16.2534 16.1653C16.0954 16.3796 15.8812 16.5 15.6579 16.5H1.34211C1.11877 16.5 0.904572 16.3796 0.746647 16.1653C0.588722 15.951 0.5 15.6603 0.5 15.3572Z" />
</svg>
