<svg width="23" height="19" viewBox="0 0 23 19" fill="black" xmlns="http://www.w3.org/2000/svg">
<path d="M2.33333 18.5H16.0833C16.725 18.5 17.1833 18.1 17.55 17.6L22.5 9.5L17.55 1.4C17.1833 0.9 16.725 0.5 16.0833 0.5H2.33333C1.8471 0.5 1.38079 0.710714 1.03697 1.08579C0.693154 1.46086 0.5 1.96957 0.5 2.5L0.5 16.5C0.5 17.0304 0.693154 17.5391 1.03697 17.9142C1.38079 18.2893 1.8471 18.5 2.33333 18.5ZM5.08333 5.9L6.36667 4.5L9.66667 8.1L12.9667 4.5L14.25 5.9L10.95 9.5L14.25 13.1L12.9667 14.5L9.66667 10.9L6.36667 14.5L5.08333 13.1L8.38333 9.5"/>
</svg>
