<svg width="20" height="20" viewBox="0 0 20 20" fill="none" xmlns="http://www.w3.org/2000/svg">
<rect x="0.5" y="0.5" width="19" height="19" rx="4" fill="white"/>
<path d="M3.96929 0.5C2.04745 0.5 0.5 2.04745 0.5 3.96928V16.0307C0.5 17.9525 2.04745 19.5 3.96929 19.5H10.5065V12.0722H8.54236V9.39793H10.5065V7.11318C10.5065 5.31816 11.667 3.67003 14.3403 3.67003C15.4227 3.67003 16.2231 3.77394 16.2231 3.77394L16.1602 6.27126C16.1602 6.27126 15.3439 6.26354 14.4531 6.26354C13.4891 6.26354 13.3345 6.70772 13.3345 7.44511V9.39795H16.2368L16.1103 12.0722H13.3345V19.5H16.0307C17.9525 19.5 19.5 17.9525 19.5 16.0307V3.9693C19.5 2.04747 17.9525 0.500019 16.0307 0.500019L3.96929 0.5Z" fill="#4267B2"/>
</svg>
