<svg width="16" height="17" viewBox="0 0 16 17" fill="black" xmlns="http://www.w3.org/2000/svg">
<path d="M8.08 14.0586L8 14.1458L7.912 14.0586C4.112 10.3005 1.6 7.81553 1.6 5.29564C1.6 3.55177 2.8 2.24387 4.4 2.24387C5.632 2.24387 6.832 3.1158 7.256 4.30163H8.744C9.168 3.1158 10.368 2.24387 11.6 2.24387C13.2 2.24387 14.4 3.55177 14.4 5.29564C14.4 7.81553 11.888 10.3005 8.08 14.0586ZM11.6 0.5C10.208 0.5 8.872 1.20627 8 2.31362C7.128 1.20627 5.792 0.5 4.4 0.5C1.936 0.5 0 2.60136 0 5.29564C0 8.58283 2.72 11.2771 6.84 15.349L8 16.5L9.16 15.349C13.28 11.2771 16 8.58283 16 5.29564C16 2.60136 14.064 0.5 11.6 0.5Z"/>
</svg>
