<svg width="15" height="18" viewBox="0 0 15 18" fill="black" xmlns="http://www.w3.org/2000/svg">
<path d="M5.15625 7.9375C6.96562 7.9375 8.4375 9.60563 8.4375 11.6562C8.4375 13.7069 6.96562 15.375 5.15625 15.375C3.34688 15.375 1.875 13.7069 1.875 11.6562C1.875 9.60563 3.34688 7.9375 5.15625 7.9375ZM5.15625 5.8125C2.30625 5.8125 0 8.42625 0 11.6562C0 14.8862 2.30625 17.5 5.15625 17.5C8.00625 17.5 10.3125 14.8862 10.3125 11.6562C10.3125 10.4238 9.975 9.28688 9.40312 8.34125L13.125 4.13375V6.875H15V0.5H9.375V2.625H11.7937L8.07187 6.84313C7.24687 6.195 6.24375 5.8125 5.15625 5.8125Z"/>
</svg>
