<svg width="20" height="17" viewBox="0 0 20 17" fill="none" xmlns="http://www.w3.org/2000/svg">
<path d="M20 2.39404C19.2511 2.72064 18.4567 2.93503 17.6433 3.03006C18.4905 2.53017 19.1411 1.73857 19.4474 0.795396C18.642 1.2659 17.7608 1.59739 16.8419 1.77556C16.0934 0.990584 15.027 0.5 13.8468 0.5C11.5807 0.5 9.74344 2.30852 9.74344 4.53911C9.74344 4.85573 9.77977 5.16397 9.84969 5.45967C6.43953 5.29117 3.41609 3.68314 1.39227 1.23938C1.03914 1.83594 0.836797 2.52986 0.836797 3.27C0.836797 4.67139 1.56125 5.90765 2.66219 6.63203C2.01059 6.61194 1.37332 6.43869 0.803594 6.12676C0.803359 6.14368 0.803359 6.16059 0.803359 6.17759C0.803359 8.13462 2.21773 9.76718 4.09477 10.1383C3.49054 10.3 2.85674 10.3237 2.2418 10.2075C2.76391 11.8122 4.2793 12.9799 6.07477 13.0126C4.67047 14.0959 2.90117 14.7417 0.978828 14.7417C0.647578 14.7417 0.321016 14.7225 0 14.6852C1.81586 15.8313 3.97266 16.5 6.28984 16.5C13.8373 16.5 17.9644 10.3451 17.9644 5.00754C17.9644 4.83235 17.9605 4.65816 17.9525 4.48497C18.7558 3.91331 19.4492 3.20526 20 2.39404Z" fill="#55ACEE"/>
</svg>
