<svg width="18" height="19" viewBox="0 0 18 19" fill="none" xmlns="http://www.w3.org/2000/svg">
<g clip-path="url(#clip0_20_62)">
<path d="M18 9.5C18 4.52947 13.9705 0.5 9 0.5C4.02947 0.5 0 4.5294 0 9.5C0 13.9921 3.29119 17.7155 7.59375 18.3907V12.1016H5.30859V9.5H7.59375V7.51719C7.59375 5.26156 8.93742 4.01562 10.9931 4.01562C11.9779 4.01562 13.0078 4.19141 13.0078 4.19141V6.40625H11.873C10.7549 6.40625 10.4062 7.10002 10.4062 7.8118V9.5H12.9023L12.5033 12.1016H10.4062V18.3907C14.7088 17.7155 18 13.9922 18 9.5Z" fill="#1877F2"/>
</g>
<defs>
<clipPath id="clip0_20_62">
<rect width="18" height="18" fill="white" transform="translate(0 0.5)"/>
</clipPath>
</defs>
</svg>
