<svg width="16" height="17" viewBox="0 0 16 17" fill="none" xmlns="http://www.w3.org/2000/svg">
<path d="M12.25 0.5H3.75C1.67893 0.5 0 2.17893 0 4.25V12.75C0 14.8211 1.67893 16.5 3.75 16.5H12.25C14.3211 16.5 16 14.8211 16 12.75V4.25C16 2.17893 14.3211 0.5 12.25 0.5Z" fill="white"/>
<path d="M12.25 0.5H3.75C1.67893 0.5 0 2.17893 0 4.25V12.75C0 14.8211 1.67893 16.5 3.75 16.5H12.25C14.3211 16.5 16 14.8211 16 12.75V4.25C16 2.17893 14.3211 0.5 12.25 0.5Z" fill="#1D9BF0"/>
<path d="M12.4733 6.21318C12.4801 6.31237 12.4801 6.41156 12.4801 6.51168C12.4801 9.5615 10.1584 13.0789 5.91294 13.0789V13.077C4.65876 13.0788 3.43056 12.7196 2.375 12.0423C2.55737 12.0642 2.74063 12.0752 2.92438 12.0756C3.96385 12.0764 4.97343 11.7278 5.79087 11.0857C5.30925 11.0766 4.8425 10.9172 4.4559 10.6298C4.0693 10.3424 3.78216 9.94144 3.63462 9.48287C3.98042 9.54955 4.33691 9.53595 4.67662 9.44312C3.59987 9.22556 2.82519 8.2795 2.82519 7.18075V7.1515C3.14618 7.33029 3.50543 7.42936 3.87269 7.44037C2.85856 6.76256 2.54594 5.41337 3.15831 4.3585C3.73777 5.07156 4.46075 5.65475 5.28028 6.07019C6.09982 6.48562 6.99758 6.72401 7.91525 6.76987C7.82375 6.37602 7.83727 5.96505 7.95444 5.57806C8.07161 5.19107 8.28834 4.84163 8.58294 4.56468C9.51256 3.69081 10.9746 3.73562 11.8485 4.66475C12.3654 4.5627 12.861 4.37321 13.3142 4.10443C13.1419 4.63885 12.7813 5.09248 12.2996 5.38093C12.7571 5.32703 13.2039 5.20455 13.625 5.01762C13.3153 5.4815 12.9252 5.88632 12.4733 6.21318Z" fill="white"/>
</svg>
