<svg width="25" height="26" viewBox="0 0 25 26" fill="black" xmlns="http://www.w3.org/2000/svg">
<path d="M20.8333 19.25H15.2778V22.375H20.8333V25.5L25 20.8125L20.8333 16.125V19.25ZM11.1111 0.5C8.05556 0.5 5.55556 3.3125 5.55556 6.75C5.55556 10.1875 8.05556 13 11.1111 13C14.1667 13 16.6667 10.1875 16.6667 6.75C16.6667 3.3125 14.1667 0.5 11.1111 0.5ZM11.1111 16.125C5 16.125 0 18.9375 0 22.375V25.5H13.1944C12.7778 24.25 12.5 23 12.5 21.5938C12.5 19.7187 12.9167 18 13.75 16.2813C12.9167 16.2813 12.0833 16.125 11.1111 16.125Z"/>
</svg>
