<svg width="20" height="16" viewBox="0 0 20 16" fill="black" xmlns="http://www.w3.org/2000/svg">
<path d="M10 4.8C10.7233 4.8 11.417 5.13714 11.9285 5.73726C12.4399 6.33737 12.7273 7.15131 12.7273 8C12.7273 8.84869 12.4399 9.66263 11.9285 10.2627C11.417 10.8629 10.7233 11.2 10 11.2C9.27668 11.2 8.58299 10.8629 8.07153 10.2627C7.56006 9.66263 7.27273 8.84869 7.27273 8C7.27273 7.15131 7.56006 6.33737 8.07153 5.73726C8.58299 5.13714 9.27668 4.8 10 4.8ZM10 0C14.5455 0 18.4273 3.31733 20 8C18.4273 12.6827 14.5455 16 10 16C5.45455 16 1.57273 12.6827 0 8C1.57273 3.31733 5.45455 0 10 0ZM1.98182 8C2.71659 9.76033 3.85755 11.2435 5.27498 12.2808C6.69241 13.3181 8.32945 13.8681 10 13.8681C11.6705 13.8681 13.3076 13.3181 14.725 12.2808C16.1424 11.2435 17.2834 9.76033 18.0182 8C17.2834 6.23967 16.1424 4.75654 14.725 3.7192C13.3076 2.68185 11.6705 2.13193 10 2.13193C8.32945 2.13193 6.69241 2.68185 5.27498 3.7192C3.85755 4.75654 2.71659 6.23967 1.98182 8Z"/>
</svg>
