<svg width="145" height="27" viewBox="0 0 145 27" fill="none" xmlns="http://www.w3.org/2000/svg">
<path d="M12.2284 4.51503C13.2861 4.34517 14.4065 5.63408 14.7292 7.41257C15.0518 9.18107 14.4692 10.7597 13.4115 10.9396C12.3628 11.1194 11.2335 9.83052 10.9018 8.05203C10.5702 6.28353 11.1707 4.70487 12.2284 4.51503ZM18.6372 4.51503C19.7038 4.70487 20.2954 6.28353 19.9817 8.05203C19.6411 9.83052 18.5206 11.1194 17.463 10.9396C16.3963 10.7597 15.8137 9.18107 16.1454 7.41257C16.468 5.63408 17.5885 4.34517 18.6372 4.51503ZM7.43301 9.11113C8.45483 8.62154 9.84415 9.51079 10.5702 11.0595C11.2514 12.6381 11.0183 14.2967 10.0055 14.7863C8.99263 15.2759 7.61228 14.3966 6.90418 12.828C6.19607 11.2593 6.44705 9.59072 7.43301 9.11113ZM23.567 9.11113C24.553 9.59072 24.8039 11.2593 24.0958 12.828C23.3877 14.3966 22.0074 15.2759 20.9945 14.7863C19.9817 14.2967 19.7486 12.6381 20.4298 11.0595C21.1559 9.51079 22.5452 8.62154 23.567 9.11113ZM22.0701 19.882C22.106 20.8212 21.4606 21.8603 20.6898 22.25C19.0853 23.0693 17.1851 21.3707 15.4014 21.3707C13.6177 21.3707 11.6996 23.1392 10.122 22.25C9.22568 21.7604 8.60721 20.4615 8.72373 19.3824C8.88507 17.8937 10.4895 17.0943 11.4396 16.0053C12.7034 14.5965 13.5998 11.9487 15.4014 11.9487C17.1941 11.9487 18.1442 14.5565 19.3542 16.0053C20.3492 17.2242 22.0074 18.2534 22.0701 19.882Z" fill="white"/>
<path d="M39.3438 12.7051V14.085H32.418V12.7051H39.3438ZM32.6816 7.20312V20H30.9854V7.20312H32.6816ZM40.8203 7.20312V20H39.1328V7.20312H40.8203ZM47.5352 20.1758C46.873 20.1758 46.2725 20.0645 45.7334 19.8418C45.2002 19.6133 44.7402 19.2939 44.3535 18.8838C43.9727 18.4736 43.6797 17.9873 43.4746 17.4248C43.2695 16.8623 43.167 16.2471 43.167 15.5791V15.21C43.167 14.4365 43.2812 13.748 43.5098 13.1445C43.7383 12.5352 44.0488 12.0195 44.4414 11.5977C44.834 11.1758 45.2793 10.8564 45.7773 10.6396C46.2754 10.4229 46.791 10.3145 47.3242 10.3145C48.0039 10.3145 48.5898 10.4316 49.082 10.666C49.5801 10.9004 49.9873 11.2285 50.3037 11.6504C50.6201 12.0664 50.8545 12.5586 51.0068 13.127C51.1592 13.6895 51.2354 14.3047 51.2354 14.9727V15.7021H44.1338V14.375H49.6094V14.252C49.5859 13.8301 49.498 13.4199 49.3457 13.0215C49.1992 12.623 48.9648 12.2949 48.6426 12.0371C48.3203 11.7793 47.8809 11.6504 47.3242 11.6504C46.9551 11.6504 46.6152 11.7295 46.3047 11.8877C45.9941 12.04 45.7275 12.2686 45.5049 12.5732C45.2822 12.8779 45.1094 13.25 44.9863 13.6895C44.8633 14.1289 44.8018 14.6357 44.8018 15.21V15.5791C44.8018 16.0303 44.8633 16.4551 44.9863 16.8535C45.1152 17.2461 45.2998 17.5918 45.54 17.8906C45.7861 18.1895 46.082 18.4238 46.4277 18.5938C46.7793 18.7637 47.1777 18.8486 47.623 18.8486C48.1973 18.8486 48.6836 18.7314 49.082 18.4971C49.4805 18.2627 49.8291 17.9492 50.1279 17.5566L51.1123 18.3389C50.9072 18.6494 50.6465 18.9453 50.3301 19.2266C50.0137 19.5078 49.624 19.7363 49.1611 19.9121C48.7041 20.0879 48.1621 20.1758 47.5352 20.1758ZM54.9004 6.5V20H53.2656V6.5H54.9004ZM59.1367 12.3184V23.6562H57.502V10.4902H58.9961L59.1367 12.3184ZM65.5439 15.166V15.3506C65.5439 16.042 65.4619 16.6836 65.2979 17.2754C65.1338 17.8613 64.8936 18.3711 64.5771 18.8047C64.2666 19.2383 63.8828 19.5752 63.4258 19.8154C62.9688 20.0557 62.4443 20.1758 61.8525 20.1758C61.249 20.1758 60.7158 20.0762 60.2529 19.877C59.79 19.6777 59.3975 19.3877 59.0752 19.0068C58.7529 18.626 58.4951 18.1689 58.3018 17.6357C58.1143 17.1025 57.9854 16.502 57.915 15.834V14.8496C57.9854 14.1465 58.1172 13.5166 58.3105 12.96C58.5039 12.4033 58.7588 11.9287 59.0752 11.5361C59.3975 11.1377 59.7871 10.8359 60.2441 10.6309C60.7012 10.4199 61.2285 10.3145 61.8262 10.3145C62.4238 10.3145 62.9541 10.4316 63.417 10.666C63.8799 10.8945 64.2695 11.2227 64.5859 11.6504C64.9023 12.0781 65.1396 12.5908 65.2979 13.1885C65.4619 13.7803 65.5439 14.4395 65.5439 15.166ZM63.9092 15.3506V15.166C63.9092 14.6914 63.8594 14.2461 63.7598 13.8301C63.6602 13.4082 63.5049 13.0391 63.2939 12.7227C63.0889 12.4004 62.8252 12.1484 62.5029 11.9668C62.1807 11.7793 61.7969 11.6855 61.3516 11.6855C60.9414 11.6855 60.584 11.7559 60.2793 11.8965C59.9805 12.0371 59.7256 12.2275 59.5146 12.4678C59.3037 12.7021 59.1309 12.9717 58.9961 13.2764C58.8672 13.5752 58.7705 13.8857 58.7061 14.208V16.4844C58.8232 16.8945 58.9873 17.2812 59.1982 17.6445C59.4092 18.002 59.6904 18.292 60.042 18.5146C60.3936 18.7314 60.8359 18.8398 61.3691 18.8398C61.8086 18.8398 62.1865 18.749 62.5029 18.5674C62.8252 18.3799 63.0889 18.125 63.2939 17.8027C63.5049 17.4805 63.6602 17.1113 63.7598 16.6953C63.8594 16.2734 63.9092 15.8252 63.9092 15.3506ZM68.4004 7.20312H70.0439L74.2363 17.6357L78.4199 7.20312H80.0723L74.8691 20H73.5859L68.4004 7.20312ZM67.8643 7.20312H69.3145L69.5518 15.0078V20H67.8643V7.20312ZM79.1494 7.20312H80.5996V20H78.9121V15.0078L79.1494 7.20312ZM87.2793 20.1758C86.6172 20.1758 86.0166 20.0645 85.4775 19.8418C84.9443 19.6133 84.4844 19.2939 84.0977 18.8838C83.7168 18.4736 83.4238 17.9873 83.2188 17.4248C83.0137 16.8623 82.9111 16.2471 82.9111 15.5791V15.21C82.9111 14.4365 83.0254 13.748 83.2539 13.1445C83.4824 12.5352 83.793 12.0195 84.1855 11.5977C84.5781 11.1758 85.0234 10.8564 85.5215 10.6396C86.0195 10.4229 86.5352 10.3145 87.0684 10.3145C87.748 10.3145 88.334 10.4316 88.8262 10.666C89.3242 10.9004 89.7314 11.2285 90.0479 11.6504C90.3643 12.0664 90.5986 12.5586 90.751 13.127C90.9033 13.6895 90.9795 14.3047 90.9795 14.9727V15.7021H83.8779V14.375H89.3535V14.252C89.3301 13.8301 89.2422 13.4199 89.0898 13.0215C88.9434 12.623 88.709 12.2949 88.3867 12.0371C88.0645 11.7793 87.625 11.6504 87.0684 11.6504C86.6992 11.6504 86.3594 11.7295 86.0488 11.8877C85.7383 12.04 85.4717 12.2686 85.249 12.5732C85.0264 12.8779 84.8535 13.25 84.7305 13.6895C84.6074 14.1289 84.5459 14.6357 84.5459 15.21V15.5791C84.5459 16.0303 84.6074 16.4551 84.7305 16.8535C84.8594 17.2461 85.0439 17.5918 85.2842 17.8906C85.5303 18.1895 85.8262 18.4238 86.1719 18.5938C86.5234 18.7637 86.9219 18.8486 87.3672 18.8486C87.9414 18.8486 88.4277 18.7314 88.8262 18.4971C89.2246 18.2627 89.5732 17.9492 89.8721 17.5566L90.8564 18.3389C90.6514 18.6494 90.3906 18.9453 90.0742 19.2266C89.7578 19.5078 89.3682 19.7363 88.9053 19.9121C88.4482 20.0879 87.9062 20.1758 87.2793 20.1758ZM96.5869 20H93.915L93.9326 18.6201H96.5869C97.501 18.6201 98.2627 18.4297 98.8721 18.0488C99.4814 17.6621 99.9385 17.123 100.243 16.4316C100.554 15.7344 100.709 14.9199 100.709 13.9883V13.2061C100.709 12.4736 100.621 11.8232 100.445 11.2549C100.27 10.6807 100.012 10.1973 99.6719 9.80469C99.332 9.40625 98.916 9.10449 98.4238 8.89941C97.9375 8.69434 97.3779 8.5918 96.7451 8.5918H93.8623V7.20312H96.7451C97.583 7.20312 98.3477 7.34375 99.0391 7.625C99.7305 7.90039 100.325 8.30176 100.823 8.8291C101.327 9.35059 101.714 9.9834 101.983 10.7275C102.253 11.4658 102.388 12.2979 102.388 13.2236V13.9883C102.388 14.9141 102.253 15.749 101.983 16.4932C101.714 17.2314 101.324 17.8613 100.814 18.3828C100.311 18.9043 99.7012 19.3057 98.9863 19.5869C98.2773 19.8623 97.4775 20 96.5869 20ZM94.8203 7.20312V20H93.124V7.20312H94.8203ZM110.509 17.8027V10.4902H112.144V20H110.588L110.509 17.8027ZM110.816 15.7988L111.493 15.7812C111.493 16.4141 111.426 17 111.291 17.5391C111.162 18.0723 110.951 18.5352 110.658 18.9277C110.365 19.3203 109.981 19.6279 109.507 19.8506C109.032 20.0674 108.455 20.1758 107.775 20.1758C107.312 20.1758 106.888 20.1084 106.501 19.9736C106.12 19.8389 105.792 19.6309 105.517 19.3496C105.241 19.0684 105.027 18.7021 104.875 18.251C104.729 17.7998 104.655 17.2578 104.655 16.625V10.4902H106.281V16.6426C106.281 17.0703 106.328 17.4248 106.422 17.7061C106.521 17.9814 106.653 18.2012 106.817 18.3652C106.987 18.5234 107.175 18.6348 107.38 18.6992C107.591 18.7637 107.808 18.7959 108.03 18.7959C108.722 18.7959 109.27 18.6641 109.674 18.4004C110.078 18.1309 110.368 17.7705 110.544 17.3193C110.726 16.8623 110.816 16.3555 110.816 15.7988ZM120.616 18.1543V6.5H122.251V20H120.757L120.616 18.1543ZM114.218 15.3506V15.166C114.218 14.4395 114.306 13.7803 114.481 13.1885C114.663 12.5908 114.918 12.0781 115.246 11.6504C115.58 11.2227 115.976 10.8945 116.433 10.666C116.896 10.4316 117.411 10.3145 117.979 10.3145C118.577 10.3145 119.099 10.4199 119.544 10.6309C119.995 10.8359 120.376 11.1377 120.687 11.5361C121.003 11.9287 121.252 12.4033 121.434 12.96C121.615 13.5166 121.741 14.1465 121.812 14.8496V15.6582C121.747 16.3555 121.621 16.9824 121.434 17.5391C121.252 18.0957 121.003 18.5703 120.687 18.9629C120.376 19.3555 119.995 19.6572 119.544 19.8682C119.093 20.0732 118.565 20.1758 117.962 20.1758C117.405 20.1758 116.896 20.0557 116.433 19.8154C115.976 19.5752 115.58 19.2383 115.246 18.8047C114.918 18.3711 114.663 17.8613 114.481 17.2754C114.306 16.6836 114.218 16.042 114.218 15.3506ZM115.853 15.166V15.3506C115.853 15.8252 115.899 16.2705 115.993 16.6865C116.093 17.1025 116.245 17.4688 116.45 17.7852C116.655 18.1016 116.916 18.3506 117.232 18.5322C117.549 18.708 117.927 18.7959 118.366 18.7959C118.905 18.7959 119.348 18.6816 119.693 18.4531C120.045 18.2246 120.326 17.9229 120.537 17.5479C120.748 17.1729 120.912 16.7656 121.029 16.3262V14.208C120.959 13.8857 120.856 13.5752 120.722 13.2764C120.593 12.9717 120.423 12.7021 120.212 12.4678C120.007 12.2275 119.752 12.0371 119.447 11.8965C119.148 11.7559 118.794 11.6855 118.384 11.6855C117.938 11.6855 117.555 11.7793 117.232 11.9668C116.916 12.1484 116.655 12.4004 116.45 12.7227C116.245 13.0391 116.093 13.4082 115.993 13.8301C115.899 14.2461 115.853 14.6914 115.853 15.166ZM128.729 20.1758C128.066 20.1758 127.466 20.0645 126.927 19.8418C126.394 19.6133 125.934 19.2939 125.547 18.8838C125.166 18.4736 124.873 17.9873 124.668 17.4248C124.463 16.8623 124.36 16.2471 124.36 15.5791V15.21C124.36 14.4365 124.475 13.748 124.703 13.1445C124.932 12.5352 125.242 12.0195 125.635 11.5977C126.027 11.1758 126.473 10.8564 126.971 10.6396C127.469 10.4229 127.984 10.3145 128.518 10.3145C129.197 10.3145 129.783 10.4316 130.275 10.666C130.773 10.9004 131.181 11.2285 131.497 11.6504C131.813 12.0664 132.048 12.5586 132.2 13.127C132.353 13.6895 132.429 14.3047 132.429 14.9727V15.7021H125.327V14.375H130.803V14.252C130.779 13.8301 130.691 13.4199 130.539 13.0215C130.393 12.623 130.158 12.2949 129.836 12.0371C129.514 11.7793 129.074 11.6504 128.518 11.6504C128.148 11.6504 127.809 11.7295 127.498 11.8877C127.188 12.04 126.921 12.2686 126.698 12.5732C126.476 12.8779 126.303 13.25 126.18 13.6895C126.057 14.1289 125.995 14.6357 125.995 15.21V15.5791C125.995 16.0303 126.057 16.4551 126.18 16.8535C126.309 17.2461 126.493 17.5918 126.733 17.8906C126.979 18.1895 127.275 18.4238 127.621 18.5938C127.973 18.7637 128.371 18.8486 128.816 18.8486C129.391 18.8486 129.877 18.7314 130.275 18.4971C130.674 18.2627 131.022 17.9492 131.321 17.5566L132.306 18.3389C132.101 18.6494 131.84 18.9453 131.523 19.2266C131.207 19.5078 130.817 19.7363 130.354 19.9121C129.897 20.0879 129.355 20.1758 128.729 20.1758ZM136.261 7.20312L136.146 16.3877H134.679L134.556 7.20312H136.261ZM134.503 19.1826C134.503 18.9189 134.582 18.6963 134.74 18.5146C134.904 18.333 135.145 18.2422 135.461 18.2422C135.771 18.2422 136.009 18.333 136.173 18.5146C136.343 18.6963 136.428 18.9189 136.428 19.1826C136.428 19.4346 136.343 19.6514 136.173 19.833C136.009 20.0146 135.771 20.1055 135.461 20.1055C135.145 20.1055 134.904 20.0146 134.74 19.833C134.582 19.6514 134.503 19.4346 134.503 19.1826Z" fill="white"/>
<rect x="1.5" y="1" width="142" height="25" stroke="white" stroke-width="2"/>
</svg>
