<svg width="187" height="29" viewBox="0 0 187 29" fill="none" xmlns="http://www.w3.org/2000/svg">
<path d="M10.0473 1.02255C11.8101 0.767762 13.6775 2.70112 14.2153 5.36885C14.7531 8.0216 13.782 10.3896 12.0192 10.6594C10.2714 10.9291 8.3891 8.99577 7.83636 6.32804C7.28362 3.67529 8.28453 1.3073 10.0473 1.02255ZM20.7286 1.02255C22.5063 1.3073 23.4923 3.67529 22.9694 6.32804C22.4018 8.99577 20.5344 10.9291 18.7716 10.6594C16.9939 10.3896 16.0229 8.0216 16.5756 5.36885C17.1134 2.70112 18.9808 0.767762 20.7286 1.02255ZM2.05502 7.91669C3.75805 7.18231 6.07358 8.51618 7.28362 10.8392C8.41898 13.2072 8.03057 15.6951 6.34247 16.4295C4.65438 17.1638 2.3538 15.845 1.17363 13.492C-0.00654395 11.139 0.411744 8.63608 2.05502 7.91669ZM28.945 7.91669C30.5883 8.63608 31.0065 11.139 29.8264 13.492C28.6462 15.845 26.3456 17.1638 24.6575 16.4295C22.9694 15.6951 22.581 13.2072 23.7164 10.8392C24.9264 8.51618 27.2419 7.18231 28.945 7.91669ZM26.4502 24.073C26.5099 25.4818 25.4343 27.0404 24.1496 27.625C21.4755 28.8539 18.3085 26.3061 15.3357 26.3061C12.3628 26.3061 9.16592 28.9588 6.53668 27.625C5.04279 26.8906 4.01201 24.9422 4.20622 23.3236C4.47512 21.0905 7.14917 19.8915 8.73269 18.2579C10.8391 16.1447 12.333 12.1731 15.3357 12.1731C18.3234 12.1731 19.907 16.0848 21.9237 18.2579C23.5819 20.0864 26.3456 21.63 26.4502 24.073Z" fill="white"/>
<path d="M49.1719 12.8682V14.7847H39.5527V12.8682H49.1719ZM39.9189 5.22656V23H37.563V5.22656H39.9189ZM51.2227 5.22656V23H48.8789V5.22656H51.2227ZM60.5488 23.2441C59.6292 23.2441 58.7951 23.0895 58.0464 22.7803C57.3058 22.4629 56.667 22.0194 56.1299 21.4497C55.6009 20.88 55.194 20.2046 54.9092 19.4233C54.6243 18.6421 54.4819 17.7876 54.4819 16.8599V16.3472C54.4819 15.2729 54.6406 14.3167 54.958 13.4785C55.2754 12.6322 55.7067 11.916 56.252 11.3301C56.7972 10.7441 57.4157 10.3006 58.1074 9.99951C58.7992 9.6984 59.5153 9.54785 60.2559 9.54785C61.1999 9.54785 62.0137 9.71061 62.6973 10.0361C63.389 10.3617 63.9546 10.8174 64.394 11.4033C64.8335 11.9811 65.159 12.6647 65.3706 13.4541C65.5822 14.2354 65.688 15.0898 65.688 16.0176V17.0308H55.8247V15.1875H63.4297V15.0166C63.3971 14.4307 63.2751 13.861 63.0635 13.3076C62.86 12.7542 62.5345 12.2985 62.0869 11.9404C61.6393 11.5824 61.029 11.4033 60.2559 11.4033C59.7432 11.4033 59.2712 11.5132 58.8398 11.7329C58.4085 11.9445 58.0382 12.2619 57.729 12.6851C57.4198 13.1082 57.1797 13.625 57.0088 14.2354C56.8379 14.8457 56.7524 15.5496 56.7524 16.3472V16.8599C56.7524 17.4865 56.8379 18.0765 57.0088 18.6299C57.1878 19.1751 57.4442 19.6553 57.7778 20.0703C58.1196 20.4854 58.5306 20.8109 59.0107 21.0469C59.499 21.2829 60.0524 21.4009 60.6709 21.4009C61.4684 21.4009 62.1439 21.2381 62.6973 20.9126C63.2507 20.5871 63.7349 20.1517 64.1499 19.6064L65.5171 20.6929C65.2323 21.1242 64.8701 21.5352 64.4307 21.9258C63.9912 22.3164 63.45 22.6338 62.8071 22.8779C62.1724 23.1221 61.4196 23.2441 60.5488 23.2441ZM70.7783 4.25V23H68.5078V4.25H70.7783ZM76.6621 12.3311V28.0781H74.3916V9.79199H76.4668L76.6621 12.3311ZM85.561 16.2861V16.5425C85.561 17.5028 85.4471 18.3939 85.2192 19.2158C84.9914 20.0296 84.6577 20.7376 84.2183 21.3398C83.7869 21.9421 83.2539 22.41 82.6191 22.7437C81.9844 23.0773 81.256 23.2441 80.4341 23.2441C79.5959 23.2441 78.8553 23.1058 78.2124 22.8291C77.5695 22.5524 77.0243 22.1496 76.5767 21.6206C76.1291 21.0916 75.771 20.4569 75.5024 19.7163C75.242 18.9757 75.063 18.1416 74.9653 17.2139V15.8467C75.063 14.8701 75.2461 13.9953 75.5146 13.2222C75.7832 12.4491 76.1372 11.7899 76.5767 11.2446C77.0243 10.6912 77.5654 10.2721 78.2002 9.9873C78.835 9.69434 79.5674 9.54785 80.3975 9.54785C81.2275 9.54785 81.964 9.71061 82.6069 10.0361C83.2498 10.3535 83.791 10.8092 84.2305 11.4033C84.6699 11.9974 84.9995 12.7095 85.2192 13.5396C85.4471 14.3615 85.561 15.277 85.561 16.2861ZM83.2905 16.5425V16.2861C83.2905 15.627 83.2214 15.0085 83.083 14.4307C82.9447 13.8447 82.729 13.332 82.436 12.8926C82.1512 12.445 81.785 12.0951 81.3374 11.8428C80.8898 11.5824 80.3568 11.4521 79.7383 11.4521C79.1686 11.4521 78.6722 11.5498 78.249 11.7451C77.834 11.9404 77.48 12.2049 77.187 12.5386C76.894 12.8641 76.654 13.2384 76.4668 13.6616C76.2878 14.0767 76.1535 14.508 76.064 14.9556V18.1172C76.2267 18.6868 76.4546 19.224 76.7476 19.7285C77.0405 20.2249 77.4312 20.6278 77.9194 20.937C78.4077 21.2381 79.0221 21.3887 79.7627 21.3887C80.373 21.3887 80.8979 21.2625 81.3374 21.0103C81.785 20.7498 82.1512 20.3958 82.436 19.9482C82.729 19.5007 82.9447 18.988 83.083 18.4102C83.2214 17.8242 83.2905 17.2017 83.2905 16.5425ZM89.5283 5.22656H91.811L97.6338 19.7163L103.444 5.22656H105.739L98.5127 23H96.7305L89.5283 5.22656ZM88.7837 5.22656H90.7979L91.1274 16.0664V23H88.7837V5.22656ZM104.458 5.22656H106.472V23H104.128V16.0664L104.458 5.22656ZM115.749 23.2441C114.829 23.2441 113.995 23.0895 113.247 22.7803C112.506 22.4629 111.867 22.0194 111.33 21.4497C110.801 20.88 110.394 20.2046 110.109 19.4233C109.825 18.6421 109.682 17.7876 109.682 16.8599V16.3472C109.682 15.2729 109.841 14.3167 110.158 13.4785C110.476 12.6322 110.907 11.916 111.452 11.3301C111.997 10.7441 112.616 10.3006 113.308 9.99951C113.999 9.6984 114.715 9.54785 115.456 9.54785C116.4 9.54785 117.214 9.71061 117.897 10.0361C118.589 10.3617 119.155 10.8174 119.594 11.4033C120.034 11.9811 120.359 12.6647 120.571 13.4541C120.782 14.2354 120.888 15.0898 120.888 16.0176V17.0308H111.025V15.1875H118.63V15.0166C118.597 14.4307 118.475 13.861 118.264 13.3076C118.06 12.7542 117.735 12.2985 117.287 11.9404C116.84 11.5824 116.229 11.4033 115.456 11.4033C114.943 11.4033 114.471 11.5132 114.04 11.7329C113.609 11.9445 113.238 12.2619 112.929 12.6851C112.62 13.1082 112.38 13.625 112.209 14.2354C112.038 14.8457 111.953 15.5496 111.953 16.3472V16.8599C111.953 17.4865 112.038 18.0765 112.209 18.6299C112.388 19.1751 112.644 19.6553 112.978 20.0703C113.32 20.4854 113.731 20.8109 114.211 21.0469C114.699 21.2829 115.253 21.4009 115.871 21.4009C116.669 21.4009 117.344 21.2381 117.897 20.9126C118.451 20.5871 118.935 20.1517 119.35 19.6064L120.717 20.6929C120.432 21.1242 120.07 21.5352 119.631 21.9258C119.191 22.3164 118.65 22.6338 118.007 22.8779C117.373 23.1221 116.62 23.2441 115.749 23.2441ZM128.676 23H124.965L124.99 21.0835H128.676C129.946 21.0835 131.004 20.819 131.85 20.29C132.696 19.7529 133.331 19.0042 133.754 18.0439C134.186 17.0755 134.401 15.9443 134.401 14.6504V13.564C134.401 12.5467 134.279 11.6434 134.035 10.854C133.791 10.0565 133.433 9.38509 132.961 8.83984C132.489 8.28646 131.911 7.86735 131.228 7.58252C130.552 7.29769 129.775 7.15527 128.896 7.15527H124.892V5.22656H128.896C130.06 5.22656 131.122 5.42188 132.082 5.8125C133.042 6.19499 133.868 6.75244 134.56 7.48486C135.26 8.20915 135.797 9.08805 136.171 10.1216C136.546 11.147 136.733 12.3026 136.733 13.5884V14.6504C136.733 15.9362 136.546 17.0959 136.171 18.1294C135.797 19.1548 135.256 20.0296 134.548 20.7539C133.848 21.4782 133.002 22.0356 132.009 22.4263C131.024 22.8088 129.913 23 128.676 23ZM126.223 5.22656V23H123.867V5.22656H126.223ZM148.012 19.9482V9.79199H150.283V23H148.122L148.012 19.9482ZM148.439 17.165L149.379 17.1406C149.379 18.0195 149.286 18.8333 149.099 19.582C148.92 20.3226 148.627 20.9655 148.22 21.5107C147.813 22.056 147.28 22.4832 146.621 22.7925C145.961 23.0936 145.16 23.2441 144.216 23.2441C143.573 23.2441 142.983 23.1506 142.446 22.9634C141.917 22.7762 141.461 22.4873 141.079 22.0967C140.696 21.7061 140.399 21.1974 140.188 20.5708C139.984 19.9442 139.882 19.1914 139.882 18.3125V9.79199H142.141V18.3369C142.141 18.931 142.206 19.4233 142.336 19.814C142.474 20.1965 142.657 20.5016 142.885 20.7295C143.121 20.9492 143.382 21.1038 143.667 21.1934C143.959 21.2829 144.261 21.3276 144.57 21.3276C145.53 21.3276 146.291 21.1445 146.853 20.7783C147.414 20.404 147.817 19.9035 148.061 19.2769C148.313 18.6421 148.439 17.9382 148.439 17.165ZM162.05 20.4365V4.25H164.321V23H162.246L162.05 20.4365ZM153.164 16.5425V16.2861C153.164 15.277 153.286 14.3615 153.53 13.5396C153.782 12.7095 154.136 11.9974 154.592 11.4033C155.056 10.8092 155.605 10.3535 156.24 10.0361C156.883 9.71061 157.599 9.54785 158.388 9.54785C159.218 9.54785 159.943 9.69434 160.561 9.9873C161.188 10.2721 161.717 10.6912 162.148 11.2446C162.587 11.7899 162.933 12.4491 163.186 13.2222C163.438 13.9953 163.613 14.8701 163.71 15.8467V16.9697C163.621 17.9382 163.446 18.8089 163.186 19.582C162.933 20.3551 162.587 21.0143 162.148 21.5596C161.717 22.1048 161.188 22.5239 160.561 22.8169C159.934 23.1017 159.202 23.2441 158.364 23.2441C157.591 23.2441 156.883 23.0773 156.24 22.7437C155.605 22.41 155.056 21.9421 154.592 21.3398C154.136 20.7376 153.782 20.0296 153.53 19.2158C153.286 18.3939 153.164 17.5028 153.164 16.5425ZM155.434 16.2861V16.5425C155.434 17.2017 155.499 17.8201 155.629 18.3979C155.768 18.9757 155.979 19.4844 156.264 19.9238C156.549 20.3633 156.911 20.7091 157.351 20.9614C157.79 21.2056 158.315 21.3276 158.925 21.3276C159.674 21.3276 160.288 21.1689 160.769 20.8516C161.257 20.5342 161.647 20.1151 161.94 19.5942C162.233 19.0734 162.461 18.5078 162.624 17.8975V14.9556C162.526 14.508 162.384 14.0767 162.197 13.6616C162.018 13.2384 161.782 12.8641 161.489 12.5386C161.204 12.2049 160.85 11.9404 160.427 11.7451C160.012 11.5498 159.519 11.4521 158.95 11.4521C158.331 11.4521 157.798 11.5824 157.351 11.8428C156.911 12.0951 156.549 12.445 156.264 12.8926C155.979 13.332 155.768 13.8447 155.629 14.4307C155.499 15.0085 155.434 15.627 155.434 16.2861ZM173.317 23.2441C172.398 23.2441 171.564 23.0895 170.815 22.7803C170.074 22.4629 169.436 22.0194 168.898 21.4497C168.369 20.88 167.963 20.2046 167.678 19.4233C167.393 18.6421 167.25 17.7876 167.25 16.8599V16.3472C167.25 15.2729 167.409 14.3167 167.727 13.4785C168.044 12.6322 168.475 11.916 169.021 11.3301C169.566 10.7441 170.184 10.3006 170.876 9.99951C171.568 9.6984 172.284 9.54785 173.024 9.54785C173.968 9.54785 174.782 9.71061 175.466 10.0361C176.158 10.3617 176.723 10.8174 177.163 11.4033C177.602 11.9811 177.928 12.6647 178.139 13.4541C178.351 14.2354 178.457 15.0898 178.457 16.0176V17.0308H168.593V15.1875H176.198V15.0166C176.166 14.4307 176.044 13.861 175.832 13.3076C175.629 12.7542 175.303 12.2985 174.855 11.9404C174.408 11.5824 173.798 11.4033 173.024 11.4033C172.512 11.4033 172.04 11.5132 171.608 11.7329C171.177 11.9445 170.807 12.2619 170.498 12.6851C170.188 13.1082 169.948 13.625 169.777 14.2354C169.606 14.8457 169.521 15.5496 169.521 16.3472V16.8599C169.521 17.4865 169.606 18.0765 169.777 18.6299C169.956 19.1751 170.213 19.6553 170.546 20.0703C170.888 20.4854 171.299 20.8109 171.779 21.0469C172.268 21.2829 172.821 21.4009 173.439 21.4009C174.237 21.4009 174.912 21.2381 175.466 20.9126C176.019 20.5871 176.503 20.1517 176.918 19.6064L178.286 20.6929C178.001 21.1242 177.639 21.5352 177.199 21.9258C176.76 22.3164 176.219 22.6338 175.576 22.8779C174.941 23.1221 174.188 23.2441 173.317 23.2441ZM183.779 5.22656L183.62 17.9829H181.582L181.411 5.22656H183.779ZM181.337 21.8647C181.337 21.4985 181.447 21.1893 181.667 20.937C181.895 20.6847 182.229 20.5586 182.668 20.5586C183.099 20.5586 183.429 20.6847 183.657 20.937C183.893 21.1893 184.011 21.4985 184.011 21.8647C184.011 22.2147 183.893 22.5158 183.657 22.7681C183.429 23.0203 183.099 23.1465 182.668 23.1465C182.229 23.1465 181.895 23.0203 181.667 22.7681C181.447 22.5158 181.337 22.2147 181.337 21.8647Z" fill="white"/>
</svg>
